<?xml version="1.0" encoding="UTF-8" standalone="no"?>
<!-- Created with Inkscape (http://www.inkscape.org/) -->

<svg
   xmlns:dc="http://purl.org/dc/elements/1.1/"
   xmlns:cc="http://creativecommons.org/ns#"
   xmlns:rdf="http://www.w3.org/1999/02/22-rdf-syntax-ns#"
   xmlns:svg="http://www.w3.org/2000/svg"
   xmlns="http://www.w3.org/2000/svg"
   xmlns:xlink="http://www.w3.org/1999/xlink"
   xmlns:sodipodi="http://sodipodi.sourceforge.net/DTD/sodipodi-0.dtd"
   xmlns:inkscape="http://www.inkscape.org/namespaces/inkscape"
   id="svg3004"
   version="1.1"
   inkscape:version="0.48.4 r9939"
   width="581.24963"
   height="177.53125"
   xml:space="preserve"
   sodipodi:docname="itchio.svg"
   inkscape:export-filename="/home/leafo/code/sites/itch.io/static/images/itchio-black.png"
   inkscape:export-xdpi="90"
   inkscape:export-ydpi="90"><metadata
     id="metadata3010"><rdf:RDF><cc:Work
         rdf:about=""><dc:format>image/svg+xml</dc:format><dc:type
           rdf:resource="http://purl.org/dc/dcmitype/StillImage" /><dc:title /></cc:Work></rdf:RDF></metadata><defs
     id="defs3008"><clipPath
       clipPathUnits="userSpaceOnUse"
       id="clipPath3018"><path
         d="m 11.248,336.111 578.139,0 0,477.307 -578.139,0 0,-477.307 z"
         id="path3020"
         inkscape:connector-curvature="0" /></clipPath><clipPath
       clipPathUnits="userSpaceOnUse"
       id="clipPath3032"><path
         d="m 0,0 595.275,0 0,841.89 L 0,841.89 0,0 z"
         id="path3034"
         inkscape:connector-curvature="0" /></clipPath><clipPath
       clipPathUnits="userSpaceOnUse"
       id="clipPath3040"><path
         d="m 69.7139,645.352 461.0151,0 0,-147.157 -461.0151,0 0,147.157 z"
         id="path3042"
         inkscape:connector-curvature="0" /></clipPath><clipPath
       clipPathUnits="userSpaceOnUse"
       id="clipPath3044"><path
         d="m 69.7139,645.352 461.0151,0 0,-147.157 -461.0151,0 0,147.157 z"
         id="path3046"
         inkscape:connector-curvature="0" /></clipPath><clipPath
       clipPathUnits="userSpaceOnUse"
       id="clipPath3048"><path
         d="m 0,0 936.382,0 0,289.754 L 0,289.754 0,0 z"
         id="path3050"
         inkscape:connector-curvature="0" /></clipPath><pattern
       patternTransform="matrix(0.49234,-0.00238037,0,-0.500183,69.7139,500.422)"
       patternUnits="userSpaceOnUse"
       x="0"
       y="0"
       width="936.382"
       height="289.754"
       id="pattern3052"><g
         id="g3054"><g
           clip-path="url(#clipPath3048)"
           id="g3056"><g
             id="g3058"><g
               transform="matrix(936.3819,0,0,-289.75383,0,289.75383)"
               id="g3060"><image
                 sodipodi:absref="/home/leafo/Desktop/itchio/itchio_img1.png"
                 xlink:href="itchio/itchio_img1.png"
                 id="image3062"
                 height="1"
                 width="1" /></g></g></g></g></pattern><mask
       maskUnits="userSpaceOnUse"
       x="0"
       y="0"
       width="1"
       height="1"
       id="mask3064"><g
         id="g3066"><g
           clip-path="url(#clipPath3040)"
           id="g3068"
           style="opacity:0.69799799"><path
             d="m 69.714,645.352 461.016,0 0,-147.156 -461.016,0 0,147.156 z"
             style="fill:#000000;fill-opacity:1;fill-rule:nonzero;stroke:none"
             id="path3070"
             inkscape:connector-curvature="0" /><g
             id="g3072"><g
               id="g3074" /><g
               id="g3076"><g
                 clip-path="url(#clipPath3044)"
                 id="g3078"><path
                   d="m 69.714,498.195 461.016,0 0,147.156 -461.016,0 0,-147.156 z"
                   style="fill:url(#pattern3052);fill-opacity:1;fill-rule:evenodd;stroke:none"
                   id="path3080"
                   inkscape:connector-curvature="0" /></g></g></g></g></g></mask><clipPath
       clipPathUnits="userSpaceOnUse"
       id="clipPath3086"><path
         d="m 69.7139,645.352 461.0151,0 0,-147.157 -461.0151,0 0,147.157 z"
         id="path3088"
         inkscape:connector-curvature="0" /></clipPath><clipPath
       clipPathUnits="userSpaceOnUse"
       id="clipPath3102"><path
         d="m 89.806,612.268 0,-18.478 c 1.063,-0.308 2.188,-0.472 3.35,-0.472 l 0,0 c 3.327,0 6.349,1.352 8.543,3.534 l 0,0 c 2.2,2.187 3.573,5.202 3.596,8.512 l 0,0 -0.009,0 0,0.016 4.144,0.008 0,-0.008 0.008,0 0,-0.016 -0.007,-0.007 c 0.023,-3.307 1.394,-6.315 3.588,-8.5 l 0,0 c 2.195,-2.184 5.22,-3.539 8.549,-3.539 l 0,0 c 3.327,0 6.35,1.352 8.543,3.534 l 0,0 c 2.2,2.187 3.573,5.202 3.596,8.512 l 0,0 -0.008,0 0,0.016 4.144,0.008 0,-0.008 0.007,0 0,-0.016 -0.007,-0.007 c 0.024,-3.307 1.395,-6.315 3.588,-8.5 l 0,0 c 2.195,-2.184 5.221,-3.539 8.549,-3.539 l 0,0 c 3.327,0 6.35,1.352 8.544,3.533 l 0,0 c 2.2,2.188 3.572,5.203 3.595,8.513 l 0,0 -0.008,0 0,0.016 4.144,0.008 0,-0.008 0.007,0 0,-0.016 -0.007,-0.007 c 0.024,-3.307 1.396,-6.315 3.588,-8.5 l 0,0 c 2.196,-2.184 5.222,-3.539 8.55,-3.539 l 0,0 c 3.327,0 6.349,1.352 8.543,3.533 l 0,0 c 2.2,2.188 3.573,5.203 3.595,8.513 l 0,0 -0.008,0 0,0.016 4.144,0.008 0,-0.008 0.008,0 0,-0.016 -0.008,-0.007 c 0.025,-3.307 1.395,-6.315 3.589,-8.5 l 0,0 c 2.195,-2.184 5.221,-3.539 8.55,-3.539 l 0,0 c 2.147,0 4.17,0.567 5.926,1.559 l 0,0 0,17.39 0,10e-4 -122.926,0 z m 100.051,-18.352 c -2.95,-2.931 -7.007,-4.751 -11.464,-4.751 l 0,0 c -4.46,0 -8.52,1.823 -11.469,4.758 l 0,0 c -1.069,1.065 -1.994,2.278 -2.737,3.603 l 0,0 c -0.745,-1.328 -1.671,-2.543 -2.743,-3.61 l 0,0 c -2.95,-2.931 -7.006,-4.751 -11.464,-4.751 l 0,0 c -4.46,0 -8.519,1.823 -11.468,4.758 l 0,0 c -1.07,1.063 -1.994,2.278 -2.737,3.603 l 0,0 c -0.745,-1.328 -1.671,-2.543 -2.744,-3.609 l 0,0 c -2.949,-2.933 -7.006,-4.752 -11.463,-4.752 l 0,0 c -4.46,0 -8.52,1.823 -11.469,4.758 l 0,0 c -1.069,1.063 -1.993,2.278 -2.737,3.603 l 0,0 c -0.744,-1.328 -1.671,-2.543 -2.742,-3.609 l 0,0 c -2.95,-2.933 -7.007,-4.752 -11.464,-4.752 l 0,0 c -1.147,0 -2.269,0.121 -3.35,0.35 l 0,0 0,-79.686 122.926,0 0,10e-4 0,80.457 c -1.839,-0.723 -3.838,-1.122 -5.926,-1.122 l 0,0 c -4.462,0 -8.521,1.823 -11.471,4.758 l 0,0 c -1.069,1.065 -1.993,2.277 -2.736,3.603 l 0,0 c -0.745,-1.329 -1.671,-2.543 -2.742,-3.61"
         id="path3104"
         inkscape:connector-curvature="0" /></clipPath><linearGradient
       x1="0"
       y1="0"
       x2="1"
       y2="0"
       gradientUnits="userSpaceOnUse"
       gradientTransform="matrix(-45.096283,66.742752,69.362305,46.866257,174.09131,527.11914)"
       spreadMethod="pad"
       id="linearGradient3110"><stop
         style="stop-opacity:1;stop-color:#9bdee3"
         offset="0"
         id="stop3112" /><stop
         style="stop-opacity:1;stop-color:#ffffff"
         offset="1"
         id="stop3114" /></linearGradient><clipPath
       clipPathUnits="userSpaceOnUse"
       id="clipPath3122"><path
         d="m 0,0 595.275,0 0,841.89 L 0,841.89 0,0 z"
         id="path3124"
         inkscape:connector-curvature="0" /></clipPath><clipPath
       clipPathUnits="userSpaceOnUse"
       id="clipPath3130"><path
         d="m 89.8042,612.269 122.9278,0 0,-56.07 -122.9278,0 0,56.07 z"
         id="path3132"
         inkscape:connector-curvature="0" /></clipPath><clipPath
       clipPathUnits="userSpaceOnUse"
       id="clipPath3134"><path
         d="m 89.8042,612.269 122.9278,0 0,-56.07 -122.9278,0 0,56.07 z"
         id="path3136"
         inkscape:connector-curvature="0" /></clipPath><clipPath
       clipPathUnits="userSpaceOnUse"
       id="clipPath3138"><path
         d="m 89.804,574.917 0,-54.095 252.378,13.891 0,54.096 -252.378,-13.892 z"
         id="path3140"
         inkscape:connector-curvature="0" /></clipPath><mask
       maskUnits="userSpaceOnUse"
       x="0"
       y="0"
       width="1"
       height="1"
       id="mask3142"><g
         id="g3144"><g
           clip-path="url(#clipPath3130)"
           id="g3146"><path
             d="m 89.804,612.269 122.928,0 0,-56.07 -122.928,0 0,56.07 z"
             style="fill:#000000;fill-opacity:1;fill-rule:nonzero;stroke:none"
             id="path3148"
             inkscape:connector-curvature="0" /><g
             id="g3150"><g
               id="g3152" /><g
               id="g3154"><g
                 clip-path="url(#clipPath3134)"
                 id="g3156"><g
                   transform="translate(89.8038,612.2682)"
                   id="g3158"><path
                     d="M 0,0 0,-42.761 252.378,-28.869 252.378,0 0,0 z"
                     style="fill:#000000;fill-opacity:1;fill-rule:nonzero;stroke:none"
                     id="path3160"
                     inkscape:connector-curvature="0" /></g><g
                   id="g3162"><g
                     clip-path="url(#clipPath3138)"
                     id="g3164"><g
                       transform="matrix(-2.9685516,53.932251,-257.92093,-14.196503,346.43802,534.94749)"
                       id="g3166"><image
                         sodipodi:absref="/home/leafo/Desktop/itchio/itchio_img2.png"
                         xlink:href="itchio/itchio_img2.png"
                         id="image3168"
                         transform="matrix(1,0,0,-1,0,1)"
                         height="1"
                         width="1" /></g></g></g></g></g></g></g></g></mask><clipPath
       clipPathUnits="userSpaceOnUse"
       id="clipPath3174"><path
         d="m 89.8042,612.269 122.9278,0 0,-56.07 -122.9278,0 0,56.07 z"
         id="path3176"
         inkscape:connector-curvature="0" /></clipPath><clipPath
       clipPathUnits="userSpaceOnUse"
       id="clipPath3202"><path
         d="m 105.826,584.266 94.755,0 0,-27.337 -94.755,0 0,27.337 z"
         id="path3204"
         inkscape:connector-curvature="0" /></clipPath><clipPath
       clipPathUnits="userSpaceOnUse"
       id="clipPath3206"><path
         d="m 105.826,584.266 94.755,0 0,-27.337 -94.755,0 0,27.337 z"
         id="path3208"
         inkscape:connector-curvature="0" /></clipPath><clipPath
       clipPathUnits="userSpaceOnUse"
       id="clipPath3210"><path
         d="m 105.826,499.735 183.582,0 0,84.53 -183.582,0 0,-84.53 z"
         clip-rule="evenodd"
         id="path3212"
         inkscape:connector-curvature="0" /></clipPath><clipPath
       clipPathUnits="userSpaceOnUse"
       id="clipPath3214"><path
         d="m 231.432,584.266 -125.605,-20.649 0,-63.881 0,-10e-4 0,0 57.972,0 125.609,20.648 0,63.882 0,10e-4 -57.976,0 z"
         id="path3216"
         inkscape:connector-curvature="0" /></clipPath><mask
       maskUnits="userSpaceOnUse"
       x="0"
       y="0"
       width="1"
       height="1"
       id="mask3218"><g
         id="g3220"><g
           clip-path="url(#clipPath3202)"
           id="g3222"><path
             d="m 105.826,584.266 94.755,0 0,-27.337 -94.755,0 0,27.337 z"
             style="fill:#000000;fill-opacity:1;fill-rule:nonzero;stroke:none"
             id="path3224"
             inkscape:connector-curvature="0" /><g
             id="g3226"><g
               id="g3228" /><g
               id="g3230"><g
                 clip-path="url(#clipPath3206)"
                 id="g3232"><g
                   id="g3234"><g
                     clip-path="url(#clipPath3210)"
                     id="g3236"><g
                       transform="translate(289.0581,586.3975)"
                       id="g3238"><path
                         d="M 0,0 -4.479,27.249 -196.761,-4.359 -192.282,-31.608 0,0 z"
                         style="fill:#000000;fill-opacity:1;fill-rule:nonzero;stroke:none"
                         id="path3240"
                         inkscape:connector-curvature="0" /></g></g></g><g
                   id="g3242"><g
                     clip-path="url(#clipPath3214)"
                     id="g3244"><g
                       id="g3246"><g
                         transform="matrix(-11.750565,71.481995,-192.2814,-31.608154,299.63345,522.06323)"
                         id="g3248"><image
                           sodipodi:absref="/home/leafo/Desktop/itchio/itchio_img3.png"
                           xlink:href="itchio/itchio_img3.png"
                           id="image3250"
                           transform="matrix(1,0,0,-1,0,1)"
                           height="1"
                           width="1" /></g></g></g></g></g></g></g></g></g></mask><clipPath
       clipPathUnits="userSpaceOnUse"
       id="clipPath3256"><path
         d="m 105.826,584.266 94.755,0 0,-27.337 -94.755,0 0,27.337 z"
         id="path3258"
         inkscape:connector-curvature="0" /></clipPath><clipPath
       clipPathUnits="userSpaceOnUse"
       id="clipPath3272"><path
         d="m 141.913,561.6 -10.031,-10.76 9.882,0 0,-11.093 19.7,0 0,11.093 10.539,0 -10.031,10.76 -10.03,10.759 -10.029,-10.759 z"
         id="path3274"
         inkscape:connector-curvature="0" /></clipPath><linearGradient
       x1="0"
       y1="0"
       x2="1"
       y2="0"
       gradientUnits="userSpaceOnUse"
       gradientTransform="matrix(-9.7993164,28.855469,28.420776,9.6517029,154.10742,549.75439)"
       spreadMethod="pad"
       id="linearGradient3280"><stop
         style="stop-opacity:1;stop-color:#ff3b3b"
         offset="0"
         id="stop3282" /><stop
         style="stop-opacity:1;stop-color:#fefefe"
         offset="1"
         id="stop3284" /></linearGradient><clipPath
       clipPathUnits="userSpaceOnUse"
       id="clipPath3292"><path
         d="m 0,0 595.275,0 0,841.89 L 0,841.89 0,0 z"
         id="path3294"
         inkscape:connector-curvature="0" /></clipPath><clipPath
       clipPathUnits="userSpaceOnUse"
       id="clipPath3364"><path
         d="m 238.636,605.711 20.244,0 0,-51.636 -20.244,0 0,51.636 z"
         id="path3366"
         inkscape:connector-curvature="0" /></clipPath><clipPath
       clipPathUnits="userSpaceOnUse"
       id="clipPath3368"><path
         d="m 238.636,605.711 20.244,0 0,-51.636 -20.244,0 0,51.636 z"
         id="path3370"
         inkscape:connector-curvature="0" /></clipPath><clipPath
       clipPathUnits="userSpaceOnUse"
       id="clipPath3372"><path
         d="m 364.388,643.63 -125.752,-13.623 0,-107.144 0,0 156.78,0 125.76,13.624 0,107.143 -156.788,0 z"
         id="path3374"
         inkscape:connector-curvature="0" /></clipPath><mask
       maskUnits="userSpaceOnUse"
       x="0"
       y="0"
       width="1"
       height="1"
       id="mask3376"><g
         id="g3378"><g
           clip-path="url(#clipPath3364)"
           id="g3380"><path
             d="m 238.636,605.711 20.245,0 0,-51.636 -20.245,0 0,51.636 z"
             style="fill:#000000;fill-opacity:1;fill-rule:nonzero;stroke:none"
             id="path3382"
             inkscape:connector-curvature="0" /><g
             id="g3384"><g
               id="g3386" /><g
               id="g3388"><g
                 clip-path="url(#clipPath3368)"
                 id="g3390"><g
                   id="g3392"><g
                     clip-path="url(#clipPath3372)"
                     id="g3394"><g
                       id="g3396"><g
                         transform="matrix(13.291458,-122.68929,292.1955,31.654785,227.1629,628.76416)"
                         id="g3398"><image
                           sodipodi:absref="/home/leafo/Desktop/itchio/itchio_img4.png"
                           xlink:href="itchio/itchio_img4.png"
                           id="image3400"
                           transform="matrix(1,0,0,-1,0,1)"
                           height="1"
                           width="1" /></g></g></g></g></g></g></g></g></g></mask><clipPath
       clipPathUnits="userSpaceOnUse"
       id="clipPath3406"><path
         d="m 238.636,605.711 20.244,0 0,-51.636 -20.244,0 0,51.636 z"
         id="path3408"
         inkscape:connector-curvature="0" /></clipPath><clipPath
       clipPathUnits="userSpaceOnUse"
       id="clipPath3422"><path
         d="m 261.888,596.868 39.559,0 0,-42.796 -39.559,0 0,42.796 z"
         id="path3424"
         inkscape:connector-curvature="0" /></clipPath><clipPath
       clipPathUnits="userSpaceOnUse"
       id="clipPath3426"><path
         d="m 261.888,596.868 39.559,0 0,-42.796 -39.559,0 0,42.796 z"
         id="path3428"
         inkscape:connector-curvature="0" /></clipPath><clipPath
       clipPathUnits="userSpaceOnUse"
       id="clipPath3430"><path
         d="m 369.948,643.63 -108.06,-11.706 0,-109.057 0.001,-0.004 127.976,0 8.096,0.877 99.964,10.83 0,109.056 -0.001,0.004 -127.976,0 z"
         id="path3432"
         inkscape:connector-curvature="0" /></clipPath><mask
       maskUnits="userSpaceOnUse"
       x="0"
       y="0"
       width="1"
       height="1"
       id="mask3434"><g
         id="g3436"><g
           clip-path="url(#clipPath3422)"
           id="g3438"><path
             d="m 261.888,596.868 39.559,0 0,-42.795 -39.559,0 0,42.795 z"
             style="fill:#000000;fill-opacity:1;fill-rule:nonzero;stroke:none"
             id="path3440"
             inkscape:connector-curvature="0" /><g
             id="g3442"><g
               id="g3444" /><g
               id="g3446"><g
                 clip-path="url(#clipPath3426)"
                 id="g3448"><g
                   id="g3450"><g
                     clip-path="url(#clipPath3430)"
                     id="g3452"><g
                       id="g3454"><g
                         transform="matrix(13.162506,-121.4989,246.22993,26.67514,250.21049,630.65884)"
                         id="g3456"><image
                           sodipodi:absref="/home/leafo/Desktop/itchio/itchio_img5.png"
                           xlink:href="itchio/itchio_img5.png"
                           id="image3458"
                           transform="matrix(1,0,0,-1,0,1)"
                           height="1"
                           width="1" /></g></g></g></g></g></g></g></g></g></mask><clipPath
       clipPathUnits="userSpaceOnUse"
       id="clipPath3464"><path
         d="m 261.888,596.868 39.559,0 0,-42.796 -39.559,0 0,42.796 z"
         id="path3466"
         inkscape:connector-curvature="0" /></clipPath><clipPath
       clipPathUnits="userSpaceOnUse"
       id="clipPath3480"><path
         d="m 304.689,584.186 51.541,0 0,-29.747 -51.541,0 0,29.747 z"
         id="path3482"
         inkscape:connector-curvature="0" /></clipPath><clipPath
       clipPathUnits="userSpaceOnUse"
       id="clipPath3484"><path
         d="m 304.689,584.186 51.541,0 0,-29.747 -51.541,0 0,29.747 z"
         id="path3486"
         inkscape:connector-curvature="0" /></clipPath><clipPath
       clipPathUnits="userSpaceOnUse"
       id="clipPath3488"><path
         d="m 367.947,643.63 -63.257,-6.853 0,-113.914 87.175,0 9.261,1.003 53.998,5.851 0,113.911 -0.001,0.002 -87.176,0 z"
         id="path3490"
         inkscape:connector-curvature="0" /></clipPath><mask
       maskUnits="userSpaceOnUse"
       x="0"
       y="0"
       width="1"
       height="1"
       id="mask3492"><g
         id="g3494"><g
           clip-path="url(#clipPath3480)"
           id="g3496"><path
             d="m 304.689,584.186 51.541,0 0,-29.747 -51.541,0 0,29.747 z"
             style="fill:#000000;fill-opacity:1;fill-rule:nonzero;stroke:none"
             id="path3498"
             inkscape:connector-curvature="0" /><g
             id="g3500"><g
               id="g3502" /><g
               id="g3504"><g
                 clip-path="url(#clipPath3484)"
                 id="g3506"><g
                   id="g3508"><g
                     clip-path="url(#clipPath3488)"
                     id="g3510"><g
                       id="g3512"><g
                         transform="matrix(13.208954,-121.92781,161.62099,17.509094,292.49132,635.45624)"
                         id="g3514"><image
                           sodipodi:absref="/home/leafo/Desktop/itchio/itchio_img6.png"
                           xlink:href="itchio/itchio_img6.png"
                           id="image3516"
                           transform="matrix(1,0,0,-1,0,1)"
                           height="1"
                           width="1" /></g></g></g></g></g></g></g></g></g></mask><clipPath
       clipPathUnits="userSpaceOnUse"
       id="clipPath3522"><path
         d="m 304.689,584.186 51.541,0 0,-29.747 -51.541,0 0,29.747 z"
         id="path3524"
         inkscape:connector-curvature="0" /></clipPath><clipPath
       clipPathUnits="userSpaceOnUse"
       id="clipPath3538"><path
         d="m 360.751,603.384 54.103,0 0,-47.115 -54.103,0 0,47.115 z"
         id="path3540"
         inkscape:connector-curvature="0" /></clipPath><clipPath
       clipPathUnits="userSpaceOnUse"
       id="clipPath3542"><path
         d="m 360.751,603.384 54.103,0 0,-47.115 -54.103,0 0,47.115 z"
         id="path3544"
         inkscape:connector-curvature="0" /></clipPath><clipPath
       clipPathUnits="userSpaceOnUse"
       id="clipPath3546"><path
         d="m 368.649,643.63 -1.777,-0.192 -21.914,-2.374 0,-118.197 10e-4,-0.004 46.204,0 23.691,2.567 0,118.2 -46.205,0 z"
         id="path3548"
         inkscape:connector-curvature="0" /></clipPath><mask
       maskUnits="userSpaceOnUse"
       x="0"
       y="0"
       width="1"
       height="1"
       id="mask3550"><g
         id="g3552"><g
           clip-path="url(#clipPath3538)"
           id="g3554"><path
             d="m 360.751,603.384 54.104,0 0,-47.115 -54.104,0 0,47.115 z"
             style="fill:#000000;fill-opacity:1;fill-rule:nonzero;stroke:none"
             id="path3556"
             inkscape:connector-curvature="0" /><g
             id="g3558"><g
               id="g3560" /><g
               id="g3562"><g
                 clip-path="url(#clipPath3542)"
                 id="g3564"><g
                   id="g3566"><g
                     clip-path="url(#clipPath3546)"
                     id="g3568"><g
                       id="g3570"><g
                         transform="matrix(13.192658,-121.77733,82.016251,8.8851776,332.30211,639.69296)"
                         id="g3572"><image
                           sodipodi:absref="/home/leafo/Desktop/itchio/itchio_img7.png"
                           xlink:href="itchio/itchio_img7.png"
                           id="image3574"
                           transform="matrix(1,0,0,-1,0,1)"
                           height="1"
                           width="1" /></g></g></g></g></g></g></g></g></g></mask><clipPath
       clipPathUnits="userSpaceOnUse"
       id="clipPath3580"><path
         d="m 360.751,603.384 54.103,0 0,-47.115 -54.103,0 0,47.115 z"
         id="path3582"
         inkscape:connector-curvature="0" /></clipPath><clipPath
       clipPathUnits="userSpaceOnUse"
       id="clipPath3596"><path
         d="m 445.769,605.711 20.245,0 0,-43.351 -20.245,0 0,43.351 z"
         id="path3598"
         inkscape:connector-curvature="0" /></clipPath><clipPath
       clipPathUnits="userSpaceOnUse"
       id="clipPath3600"><path
         d="m 445.769,605.711 20.245,0 0,-43.351 -20.245,0 0,43.351 z"
         id="path3602"
         inkscape:connector-curvature="0" /></clipPath><clipPath
       clipPathUnits="userSpaceOnUse"
       id="clipPath3604"><path
         d="m 371.016,643.63 -77.216,-8.364 0,-112.403 94.997,0 77.217,8.365 0,112.397 -0.001,0.005 -94.997,0 z"
         id="path3606"
         inkscape:connector-curvature="0" /></clipPath><mask
       maskUnits="userSpaceOnUse"
       x="0"
       y="0"
       width="1"
       height="1"
       id="mask3608"><g
         id="g3610"><g
           clip-path="url(#clipPath3596)"
           id="g3612"><path
             d="m 445.769,605.711 20.245,0 0,-43.351 -20.245,0 0,43.351 z"
             style="fill:#000000;fill-opacity:1;fill-rule:nonzero;stroke:none"
             id="path3614"
             inkscape:connector-curvature="0" /><g
             id="g3616"><g
               id="g3618" /><g
               id="g3620"><g
                 clip-path="url(#clipPath3600)"
                 id="g3622"><g
                   id="g3624"><g
                     clip-path="url(#clipPath3604)"
                     id="g3626"><g
                       id="g3628"><g
                         transform="matrix(13.137772,-121.27063,183.14748,19.841156,281.76366,633.96158)"
                         id="g3630"><image
                           sodipodi:absref="/home/leafo/Desktop/itchio/itchio_img8.png"
                           xlink:href="itchio/itchio_img8.png"
                           id="image3632"
                           transform="matrix(1,0,0,-1,0,1)"
                           height="1"
                           width="1" /></g></g></g></g></g></g></g></g></g></mask><clipPath
       clipPathUnits="userSpaceOnUse"
       id="clipPath3638"><path
         d="m 445.769,605.711 20.245,0 0,-43.351 -20.245,0 0,43.351 z"
         id="path3640"
         inkscape:connector-curvature="0" /></clipPath><clipPath
       clipPathUnits="userSpaceOnUse"
       id="clipPath3654"><path
         d="m 473.069,584.186 50.393,0 0,-18.91 -50.393,0 0,18.91 z"
         id="path3656"
         inkscape:connector-curvature="0" /></clipPath><clipPath
       clipPathUnits="userSpaceOnUse"
       id="clipPath3658"><path
         d="m 473.069,584.186 50.393,0 0,-18.91 -50.393,0 0,18.91 z"
         id="path3660"
         inkscape:connector-curvature="0" /></clipPath><clipPath
       clipPathUnits="userSpaceOnUse"
       id="clipPath3662"><path
         d="m 362.514,643.63 -7.297,-0.79 -118.867,-12.878 0,-107.095 0,-0.004 160.944,0 126.168,13.668 0,107.099 -160.948,0 z"
         id="path3664"
         inkscape:connector-curvature="0" /></clipPath><mask
       maskUnits="userSpaceOnUse"
       x="0"
       y="0"
       width="1"
       height="1"
       id="mask3666"><g
         id="g3668"><g
           clip-path="url(#clipPath3654)"
           id="g3670"><path
             d="m 473.069,584.186 50.393,0 0,-18.909 -50.393,0 0,18.909 z"
             style="fill:#000000;fill-opacity:1;fill-rule:nonzero;stroke:none"
             id="path3672"
             inkscape:connector-curvature="0" /><g
             id="g3674"><g
               id="g3676" /><g
               id="g3678"><g
                 clip-path="url(#clipPath3658)"
                 id="g3680"><g
                   id="g3682"><g
                     clip-path="url(#clipPath3662)"
                     id="g3684"><g
                       id="g3686"><g
                         transform="matrix(13.33493,-123.09059,296.71326,32.144226,224.88245,628.72005)"
                         id="g3688"><image
                           sodipodi:absref="/home/leafo/Desktop/itchio/itchio_img9.png"
                           xlink:href="itchio/itchio_img9.png"
                           id="image3690"
                           transform="matrix(1,0,0,-1,0,1)"
                           height="1"
                           width="1" /></g></g></g></g></g></g></g></g></g></mask><clipPath
       clipPathUnits="userSpaceOnUse"
       id="clipPath3696"><path
         d="m 473.069,584.186 50.393,0 0,-18.91 -50.393,0 0,18.91 z"
         id="path3698"
         inkscape:connector-curvature="0" /></clipPath><clipPath
       clipPathUnits="userSpaceOnUse"
       id="clipPath3712"><path
         d="m 89.1001,506.487 123.8089,0 0,-103.174 -123.8089,0 0,103.174 z"
         id="path3714"
         inkscape:connector-curvature="0" /></clipPath><clipPath
       clipPathUnits="userSpaceOnUse"
       id="clipPath3716"><path
         d="m 89.1001,506.487 123.8089,0 0,-103.174 -123.8089,0 0,103.174 z"
         id="path3718"
         inkscape:connector-curvature="0" /></clipPath><clipPath
       clipPathUnits="userSpaceOnUse"
       id="clipPath3720"><path
         d="m 79.386,476.077 133.522,0 0,97.017 -133.522,0 0,-97.017 z"
         id="path3722"
         inkscape:connector-curvature="0" /></clipPath><mask
       maskUnits="userSpaceOnUse"
       x="0"
       y="0"
       width="1"
       height="1"
       id="mask3724"><g
         id="g3726"><g
           clip-path="url(#clipPath3712)"
           id="g3728"><path
             d="m 89.1,506.487 123.809,0 0,-103.173 -123.809,0 0,103.173 z"
             style="fill:#000000;fill-opacity:1;fill-rule:nonzero;stroke:none"
             id="path3730"
             inkscape:connector-curvature="0" /><g
             id="g3732"><g
               id="g3734" /><g
               id="g3736"><g
                 clip-path="url(#clipPath3716)"
                 id="g3738"><path
                   d="m 79.386,403.313 133.522,0 0,82.464 -133.522,0 0,-82.464 z"
                   style="fill:#000000;fill-opacity:1;fill-rule:nonzero;stroke:none"
                   id="path3740"
                   inkscape:connector-curvature="0" /><g
                   id="g3742"><g
                     clip-path="url(#clipPath3720)"
                     id="g3744"><g
                       transform="matrix(0,-97.017441,133.52258,0,79.386108,573.09375)"
                       id="g3746"><image
                         sodipodi:absref="/home/leafo/Desktop/itchio/itchio_img10.png"
                         xlink:href="itchio/itchio_img10.png"
                         id="image3748"
                         transform="matrix(1,0,0,-1,0,1)"
                         height="1"
                         width="1" /></g></g></g></g></g></g></g></g></mask><clipPath
       clipPathUnits="userSpaceOnUse"
       id="clipPath3754"><path
         d="m 89.1001,506.487 123.8089,0 0,-103.174 -123.8089,0 0,103.174 z"
         id="path3756"
         inkscape:connector-curvature="0" /></clipPath></defs><sodipodi:namedview
     pagecolor="#ffffff"
     bordercolor="#666666"
     borderopacity="1"
     objecttolerance="10"
     gridtolerance="10"
     guidetolerance="10"
     inkscape:pageopacity="0"
     inkscape:pageshadow="2"
     inkscape:window-width="1525"
     inkscape:window-height="799"
     id="namedview3006"
     showgrid="false"
     fit-margin-top="10"
     fit-margin-left="10"
     fit-margin-right="10"
     fit-margin-bottom="10"
     inkscape:zoom="1"
     inkscape:cx="400.34115"
     inkscape:cy="63.836055"
     inkscape:window-x="196"
     inkscape:window-y="215"
     inkscape:window-maximized="0"
     inkscape:current-layer="g3012"
     inkscape:object-paths="true"
     showguides="true"
     inkscape:guide-bbox="true"><inkscape:grid
       type="xygrid"
       id="grid3279"
       empspacing="5"
       visible="true"
       enabled="true"
       snapvisiblegridlinesonly="true"
       dotted="false" /></sodipodi:namedview><g
     inkscape:groupmode="layer"
     id="layer1"
     inkscape:label="parts"
     sodipodi:insensitive="true"
     style="display:none"
     transform="translate(-90,-90)"><g
       transform="matrix(1.25,0,0,-1.25,0.65625,894.83125)"
       id="g4768"><g
         id="g4770"
         transform="translate(97.8623,635.855)"
         style="fill:#d5769f;fill-opacity:1"><path
           style="fill:#d5769f;fill-opacity:1;fill-rule:evenodd;stroke:none"
           d="M 122.3125,257.53125 C 114.6465,266.45748 99.34375,284.25 99.34375,284.25 l 0,13.0625 c 2.07875,7.49625 8.95875,13.0625 17.09375,13.0625 9.7675,0 17.74926,-7.9825 17.75,-17.75 l 6.5e-4,-8.53228 14.12435,-26.49897 z"
           transform="matrix(0.8,0,0,-0.8,-97.8623,206.035)"
           id="path4772"
           inkscape:connector-curvature="0"
           sodipodi:nodetypes="cccssccc" /></g><g
         id="g4774"
         transform="translate(118.6567,635.813)"
         style="fill:#000000;fill-opacity:1"><path
           style="fill:#1cc117;fill-opacity:1;fill-rule:evenodd;stroke:none"
           d="m 148.3125,257.59375 -14.125,26.5 0,8.53125 c 0,9.7675 8.01375,17.75 17.78125,17.75 9.7675,0 17.75,-7.9825 17.75,-17.75 l 0,-8.375 4.53125,-26.59375 z"
           transform="matrix(0.8,0,0,-0.8,-118.6567,206.077)"
           id="path4776"
           inkscape:connector-curvature="0"
           sodipodi:nodetypes="ccsssccc" /></g><path
         sodipodi:nodetypes="ccsssccc"
         inkscape:connector-curvature="0"
         id="path4778"
         d="M 139.4,635.765 135.77578,614.49459 135.775,607.79 c -8e-4,-7.814 6.386,-14.2 14.2,-14.2 7.813,0 14.2,6.386 14.2,14.2 l 0,6.725 c -1.01038,7.07806 -4.1,21.225 -4.1,21.225 z"
         style="fill:#53c7da;fill-opacity:1;fill-rule:evenodd;stroke:none" /><g
         id="g4780"
         transform="translate(160.0596,635.7305)"
         style="fill:#7cc281;fill-opacity:1"><path
           style="fill:#7cc281;fill-opacity:1;fill-rule:evenodd;stroke:none"
           d="m 200.0625,257.6875 5.15625,26.54297 0,8.39453 c 0,9.7675 8.015,17.75 17.78125,17.75 9.7675,0 17.75,-7.9825 17.75,-17.75 l 0,-8.375 -14.9375,-26.5 z"
           transform="matrix(0.8,0,0,-0.8,-160.0596,206.1595)"
           id="path4782"
           inkscape:connector-curvature="0"
           sodipodi:nodetypes="ccsssccc" /></g><g
         id="g4784"
         transform="translate(180.647,635.689)"
         style="fill:#e794f2;fill-opacity:1"><path
           style="fill:#e794f2;fill-opacity:1;fill-rule:evenodd;stroke:none"
           d="m 225.8125,257.75 14.9375,26.5 0,8.375 c 0,9.7675 7.98375,17.75 17.75,17.75 9.7675,0 17.75,-7.9825 17.75,-17.75 l 0,-8.375 -24.78125,-26.43745 z"
           transform="matrix(0.8,0,0,-0.8,-180.647,206.201)"
           id="path4786"
           inkscape:connector-curvature="0"
           sodipodi:nodetypes="ccsssccc" /></g></g></g><g
     id="g3012"
     inkscape:groupmode="layer"
     inkscape:label="itchio"
     transform="matrix(1.25,0,0,-1.25,-89.34375,804.83125)"><path
       style="fill:#000000;fill-opacity:1;fill-rule:evenodd;stroke:none"
       d="m 97.875,636.24 -18.4,-21.6 0,-6.15 c 0,-7.79728 7.167,-14.65 13.675,-14.65 7.814,0 14.32441,6.586 14.325,14.4 0,-7.814 6.286,-14.4 14.1,-14.4 7.814,0 13.9,6.586 13.9,14.4 -8e-4,-7.814 6.686,-14.4 14.5,-14.4 7.813,0 14.3,6.586 14.3,14.4 0,-7.814 6.312,-14.4 14.125,-14.4 7.814,0 13.875,6.586 13.875,14.4 0,-7.814 6.712,-14.4 14.525,-14.4 7.814,0 14.275,6.586 14.275,14.4 l 0,6.4 -20,21.6 c -34.9173,0.0926 -103.2,0 -103.2,0 z"
       id="path3298"
       inkscape:connector-curvature="0"
       sodipodi:nodetypes="cccscscscscssccc" /><g
       id="g4713"><path
         inkscape:connector-curvature="0"
         id="path3336"
         style="fill:#000000;fill-opacity:1;fill-rule:nonzero;stroke:none"
         d="m 238.984,582.905 19.313,0 0,-57.243 -19.313,0 0,57.243 z m 9.773,4.654 c -3.257,0 -5.758,0.815 -7.504,2.443 -1.745,1.629 -2.618,3.801 -2.618,6.516 0,2.559 0.873,4.732 2.618,6.515 1.746,1.784 4.247,2.676 7.504,2.676 3.258,0 5.76,-0.892 7.505,-2.676 1.745,-1.783 2.618,-3.956 2.618,-6.515 0,-2.715 -0.873,-4.887 -2.618,-6.516 -1.745,-1.628 -4.247,-2.443 -7.505,-2.443" /><path
         d="m 286.4375,524.498 c -5.585,0 -9.792,1.493 -12.624,4.479 -2.831,2.987 -4.247,7.156 -4.247,12.508 l 0,27.109 -7.678,0 0,14.311 7.678,0 0,13.962 19.314,0 0,-13.962 12.566,0 0,-14.311 -12.566,0 0,-24.317 c 0,-1.784 0.369,-3.044 1.106,-3.781 0.737,-0.737 1.881,-1.105 3.432,-1.105 2.094,0 4.382,0.93 6.865,2.792 l 4.421,-12.682 c -2.249,-1.551 -4.809,-2.773 -7.679,-3.665 -2.87,-0.892 -6.4,-1.338 -10.588,-1.338"
         style="fill:#000000;fill-opacity:1;fill-rule:nonzero;stroke:none"
         id="path3340"
         inkscape:connector-curvature="0" /><path
         d="m 333.1924,524.498 c -8.842,0 -15.804,2.521 -20.884,7.563 -5.081,5.041 -7.621,12.372 -7.621,21.989 0,6.981 1.435,12.838 4.305,17.569 2.947,4.887 6.632,8.183 11.054,9.89 4.653,1.784 8.958,2.676 12.914,2.676 4.963,0 9.114,-0.989 12.449,-2.967 3.336,-1.978 5.798,-4.13 7.388,-6.457 1.59,-2.327 2.734,-4.15 3.432,-5.469 l -13.38,-8.609 c -1.241,2.559 -2.598,4.576 -4.072,6.05 -1.474,1.473 -3.258,2.21 -5.352,2.21 -2.948,0 -5.274,-1.163 -6.981,-3.49 -1.706,-2.327 -2.56,-5.856 -2.56,-10.588 0,-5.119 1.009,-8.881 3.026,-11.286 2.016,-2.404 4.886,-3.606 8.609,-3.606 2.947,0 5.41,0.542 7.389,1.629 1.977,1.085 3.858,2.481 5.642,4.188 l 6.167,-14.427 c -1.862,-1.552 -4.615,-3.084 -8.26,-4.596 -3.647,-1.513 -8.068,-2.269 -13.265,-2.269"
         style="fill:#000000;fill-opacity:1;fill-rule:nonzero;stroke:none"
         id="path3344"
         inkscape:connector-curvature="0" /><path
         d="m 360.751,525.6616 0,77.721 19.43,0 0,-23.619 c 1.629,1.164 3.607,2.191 5.933,3.083 2.328,0.892 5.12,1.338 8.378,1.338 6.825,0 11.926,-1.939 15.3,-5.817 3.374,-3.878 5.061,-9.347 5.061,-16.405 l 0,-36.301 -19.43,0 0,33.974 c 0,3.257 -0.62,5.643 -1.861,7.155 -1.242,1.513 -2.871,2.269 -4.887,2.269 -1.707,0 -3.297,-0.388 -4.771,-1.164 -1.473,-0.775 -2.715,-1.589 -3.723,-2.442 l 0,-39.792 -19.43,0 z"
         style="fill:#000000;fill-opacity:1;fill-rule:nonzero;stroke:none"
         id="path3348"
         inkscape:connector-curvature="0" /><path
         d="m 430.3105,524.498 c -3.103,0 -5.546,0.892 -7.329,2.676 -1.784,1.784 -2.677,4.072 -2.677,6.865 0,2.792 0.893,5.119 2.677,6.98 1.783,1.862 4.226,2.793 7.329,2.793 2.948,0 5.313,-0.931 7.098,-2.793 1.784,-1.861 2.675,-4.188 2.675,-6.98 0,-2.793 -0.872,-5.081 -2.618,-6.865 -1.745,-1.784 -4.13,-2.676 -7.155,-2.676"
         style="fill:#000000;fill-opacity:1;fill-rule:nonzero;stroke:none"
         id="path3352"
         inkscape:connector-curvature="0" /><path
         inkscape:connector-curvature="0"
         id="path3354"
         style="fill:#000000;fill-opacity:1;fill-rule:nonzero;stroke:none"
         d="m 446.117,582.905 19.313,0 0,-57.243 -19.313,0 0,57.243 z m 9.774,4.654 c -3.258,0 -5.76,0.815 -7.505,2.443 -1.745,1.629 -2.617,3.801 -2.617,6.516 0,2.559 0.872,4.732 2.617,6.515 1.745,1.784 4.247,2.676 7.505,2.676 3.257,0 5.758,-0.892 7.504,-2.676 1.745,-1.783 2.618,-3.956 2.618,-6.515 0,-2.715 -0.873,-4.887 -2.618,-6.516 -1.746,-1.628 -4.247,-2.443 -7.504,-2.443" /><path
         d="m 499.9697,524.498 c -4.499,0 -8.494,0.756 -11.984,2.269 -3.491,1.512 -6.457,3.606 -8.901,6.283 -2.443,2.676 -4.304,5.856 -5.585,9.54 -1.28,3.684 -1.92,7.699 -1.92,12.042 0,6.438 1.397,12.062 4.189,16.871 2.87,4.731 6.458,8.028 10.763,9.89 4.304,1.861 8.784,2.792 13.438,2.792 6.67,0 12.178,-1.551 16.521,-4.654 4.421,-3.103 7.524,-6.981 9.308,-11.635 1.784,-4.654 2.676,-9.075 2.676,-13.264 0,-4.343 -0.64,-8.358 -1.92,-12.042 -1.279,-3.684 -3.142,-6.864 -5.585,-9.54 -2.442,-2.677 -5.429,-4.771 -8.958,-6.283 -3.529,-1.513 -7.543,-2.269 -12.042,-2.269 m 0,14.893 c 3.258,0 5.623,1.376 7.097,4.13 1.473,2.753 2.211,6.457 2.211,11.111 0,4.422 -0.776,7.951 -2.328,10.588 -1.551,2.637 -3.877,3.956 -6.98,3.956 -3.025,0 -5.313,-1.319 -6.865,-3.956 -1.551,-2.637 -2.327,-6.166 -2.327,-10.588 0,-4.654 0.756,-8.358 2.269,-11.111 1.513,-2.754 3.819,-4.13 6.923,-4.13"
         style="fill:#000000;fill-opacity:1;fill-rule:nonzero;stroke:none"
         id="path3358"
         inkscape:connector-curvature="0" /></g><path
       style="fill:#000000;fill-opacity:1;stroke:none"
       d="m 107.475,597.44429 c -0.744,-1.328 -1.779,-2.46329 -2.85,-3.52929 -2.95,-2.933 -7.018,-4.75 -11.475,-4.75 -1.147,0 -4.075,0.675 -4.075,0.675 l 0,-80 123.2,0 0,80.45 c -1.839,-0.723 -3.387,-1.125 -5.475,-1.125 -4.462,0 -8.525,1.815 -11.475,4.75 -1.069,1.065 -1.982,2.274 -2.725,3.6 -0.745,-1.329 -1.679,-2.533 -2.75,-3.6 -2.95,-2.931 -6.993,-4.75 -11.45,-4.75 -4.46,0 -8.526,1.815 -11.475,4.75 -1.069,1.065 -2.007,2.275 -2.75,3.6 -0.745,-1.328 -1.653,-2.533 -2.725,-3.6 -2.95,-2.931 -7.017,-4.75 -11.475,-4.75 -4.46,0 -8.526,1.815 -11.475,4.75 -1.07,1.063 -1.982,2.275 -2.725,3.6 -0.745,-1.328 -1.677,-2.534 -2.75,-3.6 -2.949,-2.933 -6.993,-4.75 -11.45,-4.75 -4.46,0 -8.526,1.815 -11.475,4.75 -1.069,1.063 -1.881,2.20429 -2.625,3.52929 z M 125.2,582.665 c 5.374,0 9.196,-3.479 10.55,-8.725 l 29.7,0 c 1.353,5.246 5.151,8.725 10.525,8.725 8.536,0 17.921,-8.765 20.85,-19.475 l 7,-25.575 c 2.93,-10.71 -1.663,-19.475 -10.2,-19.475 -7.494,0 -15.64,6.754 -19.5,15.65 l -47.075,0 c -3.86,-8.896 -12.005,-15.65 -19.5,-15.65 -8.537,0 -13.13,8.765 -10.2,19.475 l 7,25.575 c 2.93,10.71 12.313,19.475 20.85,19.475 z"
       id="path3116"
       inkscape:connector-curvature="0"
       sodipodi:nodetypes="ccsccccscccscccscccsccsccsccsccsccs"
       clip-path="none" /><path
       d="m 140.06548,560 -10.031,-10.76 9.882,0 0,-11.093 19.7,0 0,11.093 10.539,0 -10.031,10.76 -10.03,10.759 z"
       style="fill:#000000;fill-opacity:1;stroke:none"
       id="path3286"
       inkscape:connector-curvature="0"
       sodipodi:nodetypes="cccccccccc" /></g></svg>