<?xml version="1.0" encoding="UTF-8" standalone="no"?>
<!-- Created with Inkscape (http://www.inkscape.org/) -->

<svg
   xmlns:dc="http://purl.org/dc/elements/1.1/"
   xmlns:cc="http://creativecommons.org/ns#"
   xmlns:rdf="http://www.w3.org/1999/02/22-rdf-syntax-ns#"
   xmlns:svg="http://www.w3.org/2000/svg"
   xmlns="http://www.w3.org/2000/svg"
   xmlns:sodipodi="http://sodipodi.sourceforge.net/DTD/sodipodi-0.dtd"
   xmlns:inkscape="http://www.inkscape.org/namespaces/inkscape"
   width="1024"
   height="1024"
   id="svg2"
   version="1.1"
   inkscape:version="0.48.5 r10040"
   sodipodi:docname="itchio_skull.svg">
  <defs
     id="defs4">
    <clipPath
       id="clipPath3158"
       clipPathUnits="userSpaceOnUse">
      <path
         id="path3160"
         d="m 0,841.89 595.28,0 L 595.28,0 0,0 0,841.89 z"
         inkscape:connector-curvature="0" />
    </clipPath>
  </defs>
  <sodipodi:namedview
     id="base"
     pagecolor="#ffffff"
     bordercolor="#666666"
     borderopacity="1.0"
     inkscape:pageopacity="0.0"
     inkscape:pageshadow="2"
     inkscape:zoom="0.5"
     inkscape:cx="495.3042"
     inkscape:cy="589.44383"
     inkscape:document-units="px"
     inkscape:current-layer="layer1"
     showgrid="false"
     units="px"
     fit-margin-top="1"
     fit-margin-right="1"
     fit-margin-bottom="1"
     fit-margin-left="1"
     inkscape:window-width="1916"
     inkscape:window-height="1058"
     inkscape:window-x="0"
     inkscape:window-y="18"
     inkscape:window-maximized="1" />
  <metadata
     id="metadata7">
    <rdf:RDF>
      <cc:Work
         rdf:about="">
        <dc:format>image/svg+xml</dc:format>
        <dc:type
           rdf:resource="http://purl.org/dc/dcmitype/StillImage" />
        <dc:title />
      </cc:Work>
    </rdf:RDF>
  </metadata>
  <g
     inkscape:label="Layer 1"
     inkscape:groupmode="layer"
     id="layer1"
     transform="translate(-107.83865,241.19527)">
    <g
       transform="matrix(2.692462,0,0,-2.692462,-180.80797,1404.4188)"
       inkscape:label="itchio_skull"
       id="g3152"
       style="fill:#000000">
      <g
         id="g3154"
         style="fill:#000000">
        <g
           clip-path="url(#clipPath3158)"
           id="g3156"
           style="fill:#000000">
          <g
             transform="translate(479.1084,487.1123)"
             id="g3162"
             style="fill:#000000">
            <path
               id="path3164"
               style="fill:#000000;fill-opacity:1;fill-rule:nonzero;stroke:none"
               d="m 0,0 c -0.697,7.279 -2.174,14.424 -4.263,21.425 -1.488,4.988 -3.28,9.846 -5.576,14.568 -3.15,6.477 -6.944,12.516 -11.542,17.972 -4.266,5.062 -9.089,9.656 -13.67,14.452 -9.276,9.71 -20.142,17.225 -32.168,23.089 -4.675,2.28 -21.642,7.404 -25.2,8.312 -4.894,1.25 -10.004,1.644 -14.917,2.835 -4.104,0.994 -24.851,4.965 -31.544,5.573 -6.693,0.608 -26.582,2.107 -28.22,2.159 -6.46,0.204 -12.948,0.755 -19.37,0.332 -3.076,-0.203 -14.248,-1.057 -16.879,-1.4 -2.631,-0.342 -9.714,-0.961 -12.64,-1.527 -7.698,-1.491 -15.364,-3.165 -22.995,-4.967 -6.357,-1.501 -12.866,-2.728 -18.911,-5.092 -3.41,-1.335 -16.024,-6.25 -24.698,-10.174 -8.673,-3.924 -20.851,-9.66 -24.041,-11.911 -5.581,-3.941 -10.743,-8.476 -16.067,-12.778 -2.046,-1.653 -4.285,-3.163 -5.987,-5.128 -4.662,-5.378 -9.259,-10.83 -13.549,-16.505 -3.725,-4.927 -7.06,-10.155 -10.449,-15.328 -3.615,-5.519 -5.562,-11.777 -7.61,-17.975 -1.816,-5.493 -2.87,-11.07 -3.513,-16.881 -1.036,-9.349 -1.434,-18.752 -0.132,-27.895 1.304,-9.166 3.612,-18.289 6.456,-27.222 1.194,-3.75 2.774,-7.268 4.274,-10.852 1.569,-3.75 3.052,-7.564 4.977,-11.133 1.973,-3.66 4.404,-7.076 6.696,-10.559 0.991,-1.505 11.814,-15.232 16.218,-20.554 4.308,-5.205 9.835,-9.383 14.611,-14.225 4.223,-4.281 8.675,-8.322 12.931,-12.57 5.417,-5.405 9.536,-11.654 13.533,-18.041 4.231,-6.76 5.005,-14.441 5.532,-22.152 0.18,-2.644 -0.884,-20.08 -1.474,-26.153 -0.303,-3.109 -0.105,-6.216 -1.155,-9.283 -0.86,-2.514 -2.637,-12.93 -2.47,-13.672 0.777,-3.446 3.558,-5.85 7.05,-6.095 4.285,-0.3 6.146,0.817 7.622,4.695 0.755,1.984 1.362,4.023 2.094,6.015 1.935,5.262 4.365,35.686 4.364,38.098 -0.002,2.412 -0.107,4.83 -0.306,7.233 -0.257,3.107 -0.542,6.218 -1.009,9.297 -1.53,10.089 -5.233,19.185 -12.295,26.769 -1.417,1.522 -2.295,3.545 -3.693,5.092 -2.584,2.856 -5.367,5.533 -8.07,8.281 -3.13,3.182 -6.203,6.422 -9.406,9.527 -5.953,5.772 -12.018,11.429 -17.957,17.215 -1.704,1.66 -3.103,3.631 -4.697,5.408 -1.596,1.779 -6.2,7.522 -10.011,13.597 -2.991,4.769 -5.286,9.945 -6.643,12.208 -2.478,4.132 -3.579,9.094 -5.253,13.702 -2.316,6.375 -4.017,12.878 -5.405,19.552 -1.381,6.639 -2.622,13.212 -2.494,19.966 0.109,5.772 0.227,11.596 1.082,17.287 0.772,5.133 2.214,10.235 3.961,15.137 2.358,6.617 6.056,12.618 9.772,18.576 0.744,1.194 1.29,2.706 2.102,3.697 4.594,5.614 10.637,13.024 14.255,16.454 3.619,3.429 16.425,14.998 22.895,18.864 10.296,6.155 20.764,11.849 32.24,15.548 4.152,1.338 8.138,3.184 12.26,4.623 3.384,1.182 6.812,2.311 10.303,3.099 7.332,1.654 14.712,3.097 22.083,4.569 4.423,0.883 7.159,1.593 13.306,2.336 6.148,0.742 9.357,2.053 21.567,2.053 12.21,0 11.692,-0.687 17.539,-0.723 8.828,-0.056 17.557,-0.969 26.313,-2.052 7.219,-0.893 14.419,-1.88 21.543,-3.236 6.461,-1.229 12.859,-2.799 19.333,-4.025 5.609,-1.062 9.953,-1.62 16.605,-4.21 6.653,-2.59 13.202,-5.586 19.104,-9.813 7.366,-5.276 31.347,-27.871 33.324,-30.796 4.493,-6.652 8.211,-13.712 10.971,-21.347 2.472,-6.84 3.732,-12.271 4.984,-20.952 1.252,-8.681 0.807,-8.819 1.223,-17.272 0.416,-8.454 -0.644,-13.024 -0.951,-19.517 -0.273,-5.756 -2.661,-11.223 -4.51,-16.742 -2.542,-7.587 -6.791,-14.321 -9.929,-21.594 -0.597,-1.385 -1.42,-2.759 -2.308,-4.073 -2.748,-4.06 -5.463,-8.148 -8.198,-12.225 -3.926,-5.853 -8.197,-11.392 -13.077,-16.368 -6.646,-6.78 -13.686,-13.187 -20.769,-19.518 -5.02,-4.487 -10.315,-8.678 -15.62,-12.833 -6.788,-5.319 -14.279,-9.642 -21.126,-14.929 -4.399,-3.396 -8.531,-6.786 -12.234,-11.013 -4.228,-4.826 -5.982,-10.237 -6.297,-16.229 -0.377,-7.219 0.5,-14.442 2.133,-21.45 1.232,-5.285 8.354,-30.346 8.797,-31.41 0.443,-1.065 2.133,-3.211 4.516,-3.354 4.077,-0.242 6.993,2.024 7.073,6.36 0.057,3.093 -6.173,32.04 -6.383,33.688 -0.21,1.649 -1.876,7.538 -1.787,12.629 0.089,5.091 0.617,8.803 3.394,11.959 3.441,3.91 7.743,7.13 11.947,10.282 5.188,3.89 10.671,7.388 16.004,11.087 2.557,1.774 5.169,3.492 7.57,5.465 3.186,2.619 6.171,5.482 9.277,8.201 4.405,3.857 9.124,7.405 13.153,11.617 2.29,2.395 5.179,3.922 7.363,6.263 3.817,4.092 7.469,8.353 10.979,12.711 2.874,3.569 5.491,7.352 8.12,11.11 0.823,1.175 1.218,2.641 1.983,3.867 3.622,5.809 7.593,11.423 10.875,17.417 2.662,4.859 4.71,10.087 6.687,15.283 2.036,5.347 4.294,10.737 5.305,16.317 1.462,8.074 2.447,12.338 2.447,23.262 C 1.278,-7.696 0.551,-5.749 0,0"
               inkscape:connector-curvature="0" />
          </g>
          <g
             transform="translate(271.4399,373.624)"
             id="g3166"
             style="fill:#000000">
            <path
               id="path3168"
               style="fill:#000000;fill-opacity:1;fill-rule:nonzero;stroke:none"
               d="m 0,0 c 1.073,0.752 2.24,1.37 3.353,2.067 3.154,1.975 6.416,3.941 8.315,7.232 3.076,5.331 4.839,10.826 4.21,17.359 -0.91,9.452 -5.482,16.218 -13.507,20.224 -7.823,3.905 -13.761,9.722 -19.425,15.985 -3.899,4.314 -8.363,7.604 -13.761,9.733 -7.36,2.902 -14.886,4.056 -22.862,3.986 -6.432,-0.056 -11.031,-3.254 -15.938,-6.371 -4.794,-3.046 -7.407,-7.913 -9.793,-12.69 -2.826,-5.654 -7.538,-17.374 -7.825,-21.508 -0.287,-4.135 -0.551,-5.479 -0.211,-6.65 2.297,-7.916 4.578,-15.582 10.759,-21.945 5.617,-5.781 11.269,-11.529 17.344,-16.766 5.9,-5.085 12.831,-8.549 20.988,-8.447 1.332,0 2.773,-0.336 3.976,0.059 4.972,1.626 9.944,3.298 14.779,5.288 C -14.772,-10.459 -2.093,-1.467 0,0"
               inkscape:connector-curvature="0" />
          </g>
          <g
             transform="translate(394.1895,382.2793)"
             id="g3170"
             style="fill:#000000">
            <path
               id="path3172"
               style="fill:#000000;fill-opacity:1;fill-rule:nonzero;stroke:none"
               d="m 0,0 c 3.591,5.646 6.039,11.843 8.146,18.269 2.027,6.175 1.483,12.365 1.523,18.503 0.03,4.665 -1.759,9.261 -4.469,13.322 -2.264,3.393 -5.065,6.808 -9.488,7.805 -2.01,0.454 -3.839,0.211 -7.136,-0.367 -3.297,-0.578 -3.934,-0.207 -6.052,-0.066 -4.134,0.273 -8.309,1.207 -12.381,0.859 -5.66,-0.484 -11.228,-1.709 -16.756,-3.396 -9.014,-2.752 -16.373,-7.719 -21.583,-15.278 -5.096,-7.394 -7.541,-15.531 -7.243,-23.293 0.297,-7.761 1.538,-22.612 5.31,-30.138 3.773,-7.527 19.276,-14.244 25.816,-14.244 6.541,0 12.805,4.017 18.701,7.32 C -22.9,-19.187 -4.365,-6.862 0,0"
               inkscape:connector-curvature="0" />
          </g>
          <g
             transform="translate(204.9761,491.0933)"
             id="g3174"
             style="fill:#000000">
            <path
               id="path3176"
               style="fill:#000000;fill-opacity:1;fill-rule:nonzero;stroke:none"
               d="m 0,0 c -0.595,-2.343 -1.422,-5.654 -2.587,-6.818 -1.165,-1.164 -3.016,-1.762 -4.762,-2.117 -3.039,-0.618 -6.085,-1.205 -9.124,-1.824 -5.287,-1.076 -10.576,-2.14 -15.852,-3.265 -2.093,-0.446 -3.451,-2.256 -3.382,-4.271 0.058,-1.684 1.312,-2.65 3.901,-2.912 0.824,-0.083 1.668,-0.053 2.497,0.008 5.431,0.395 10.86,0.807 16.288,1.239 0.481,0.039 4.537,0.451 7.941,0.794 3.404,0.343 20.438,3.631 30.782,4.674 3.22,0.325 6.48,1.029 9.522,2.117 2.652,0.948 3.021,3.427 1.204,5.56 -2.291,2.689 -5.156,4.091 -8.766,3.312 C 22.345,-4.651 17.017,-5.62 11.539,-5.449 7.788,-5.332 6.57,-4.115 7.471,-0.57 9.678,8.116 7.859,16.641 6.592,25.161 c -0.593,3.997 0.054,5.482 3.971,6.089 1.941,0.301 3.884,0.588 5.83,0.854 3.416,0.464 6.842,0.857 10.251,1.37 6.066,0.912 12.161,1.45 17.964,3.937 2.174,0.932 2.331,1.943 2.193,3.611 -0.177,2.129 -2.738,4.778 -4.903,4.844 -3.326,0.1 -6.7,0.239 -9.984,-0.183 -6.489,-0.834 -12.926,-2.065 -19.391,-3.091 -5.981,-0.948 -11.968,-1.87 -17.96,-2.748 -1.892,-0.277 -3.808,-0.401 -5.715,-0.547 -5.489,-0.419 -11.018,-0.536 -16.458,-1.299 -4.765,-0.669 -9.626,-1.027 -14.186,-2.988 -1.538,-0.661 -1.929,-1.732 -2.047,-2.893 -0.041,-0.402 1.428,-1.071 2.288,-1.421 0.898,-0.367 13.473,-0.701 15.663,-0.809 2.548,-0.125 6.208,-0.472 10.257,-0.539 5.65,-0.092 11.616,0.126 12.472,0.148 1.449,0.036 2.558,0.093 2.953,-1.589 0.203,-0.866 0.557,-4.321 0.787,-6.691 C 0.665,19.002 1.376,5.42 0,0"
               inkscape:connector-curvature="0" />
          </g>
          <g
             transform="translate(317.4209,346.1807)"
             id="g3178"
             style="fill:#000000">
            <path
               id="path3180"
               style="fill:#000000;fill-opacity:1;fill-rule:nonzero;stroke:none"
               d="m 0,0 c 1.873,5.028 2.996,9.761 -0.014,14.5 -2.717,4.283 -6.132,7.475 -11.877,7.447 -2.368,-0.01 -4.794,0.729 -7.342,1.074 -2.55,0.346 -4.712,0.461 -6.674,0.194 -1.962,-0.268 -3.203,-0.55 -4.293,-1.247 -1.09,-0.697 -9.48,-7.369 -12.574,-12.937 -3.544,-6.375 -5.125,-12.478 -1.659,-19.451 2.799,-5.63 5.271,-7.459 11.526,-7.271 2.415,0.418 4.836,1.214 7.244,1.178 5.518,-0.081 10.566,1.978 14.559,5.013 C -6.973,-8.361 -2.092,-5.618 0,0"
               inkscape:connector-curvature="0" />
          </g>
          <g
             transform="translate(364.0244,533.3511)"
             id="g3182"
             style="fill:#000000">
            <path
               id="path3184"
               style="fill:#000000;fill-opacity:1;fill-rule:nonzero;stroke:none"
               d="m 0,0 c -0.827,2.11 -1.114,2.992 -2.171,3.472 -2.695,1.226 -5.32,-0.488 -6.017,-3.626 0,0 -0.638,-1.89 -0.638,-6.182 0,-4.292 -0.19,-3.143 0,-7.053 0.189,-3.91 0.631,-31.408 0.664,-33.024 0,-2.665 0.085,-5.335 -0.024,-7.996 -0.11,-2.72 1.167,-4.689 2.928,-6.571 1.274,-1.362 2.724,-2.013 4.446,-1.478 2.01,0.625 2.009,2.425 1.919,4.133 -0.135,2.589 -0.438,5.175 -0.433,7.762 0.006,2.803 0.374,5.604 0.422,8.409 0.092,5.449 0.166,5.566 5.712,5.929 0.878,0.058 1.745,0.327 2.621,0.352 2.134,0.062 4.123,-1.294 4.342,-3.08 0.272,-2.214 -0.083,-1.177 0.541,-6.673 0.623,-5.497 0.508,-8.819 2.469,-12.888 0.555,-1.153 1.163,-2.302 1.915,-3.331 1.203,-1.646 2.906,-2.31 4.812,-1.449 2.172,0.98 1.654,3.055 1.501,4.828 -0.197,2.278 -0.613,4.536 -0.889,6.808 -0.339,2.798 -0.833,5.597 -0.887,8.403 -0.058,3.084 -0.576,6.368 3.028,8.351 4.02,2.213 4.121,5.364 0.543,7.786 -3.578,2.422 -3.46,-0.005 -3.177,3.417 0.283,3.423 0.453,7.122 0.464,8.094 0.049,4.498 0.078,8.998 -0.02,13.494 -0.023,1.1 -0.387,2.27 -0.883,3.265 -1.16,2.329 -2.847,2.737 -5.15,1.567 -1.713,-0.871 -3.011,-1.962 -3.274,-4.023 -0.228,-1.775 -0.837,-3.524 -0.884,-5.295 -0.129,-4.828 0.072,-9.666 -0.089,-14.492 -0.133,-3.961 -1.561,-5.163 -5.531,-5.227 -1.166,-0.019 -2.335,-0.044 -3.499,0.007 -3.066,0.135 -3.42,0.593 -3.623,3.431 -0.203,2.838 -0.96,9.372 -0.353,14.145 C 1.393,-3.961 0.827,-2.11 0,0"
               inkscape:connector-curvature="0" />
          </g>
          <g
             transform="translate(256.4844,308.9961)"
             id="g3186"
             style="fill:#000000">
            <path
               id="path3188"
               style="fill:#000000;fill-opacity:1;fill-rule:nonzero;stroke:none"
               d="m 0,0 c -3.982,0.681 -6.9,-0.55 -8.583,-4.147 -1.278,-2.735 -1.457,-7.17 -1.292,-8.874 0.165,-1.703 -0.341,-23.972 -0.841,-31.857 -0.18,-2.827 -1.163,-7.85 -1.163,-7.85 0,0 -0.308,-4.352 0.464,-6.567 0.926,-2.649 3.227,-3.671 5.211,-4.987 1.79,-1.189 6.273,-0.591 7.453,0.843 1.997,2.429 3.234,6.986 3.281,8.439 0.048,1.453 0.128,3.925 0.313,6.116 0.276,3.265 0.537,11.196 0.708,20.152 0.171,8.956 0.224,18.125 0.049,21.87 C 5.461,-3.917 2.369,-0.405 0,0"
               inkscape:connector-curvature="0" />
          </g>
          <g
             transform="translate(300.0957,537.2896)"
             id="g3190"
             style="fill:#000000">
            <path
               id="path3192"
               style="fill:#000000;fill-opacity:1;fill-rule:nonzero;stroke:none"
               d="m 0,0 c -1.596,-0.337 -2.494,-0.709 -3.729,-1.104 -2.952,-0.943 -13.47,-3.444 -15.548,-4.302 -7.157,-2.954 -14.625,-4.564 -22.199,-5.939 -2.861,-0.52 -6.83,-1.798 -9.298,-3.71 -2.469,-1.912 -2.692,-2.399 -2.362,-3.726 0.331,-1.327 2.632,-2.911 5.485,-2.531 2.852,0.381 2.442,0.408 3.866,0.746 1.424,0.338 5.552,0.638 8.487,0.858 2.121,0.159 4.624,-1.759 4.958,-3.854 0.208,-1.302 0.05,-2.66 0.11,-3.99 0.328,-7.323 0.617,-14.649 1.042,-21.967 0.141,-2.445 0.412,-4.932 1.05,-7.284 0.549,-2.019 1.406,-4.112 2.688,-5.727 1.045,-1.318 2.794,-2.445 4.816,-1.783 1.578,0.515 3.158,1 2.598,4.363 -0.559,3.364 -2.256,25.431 -2.651,29.389 -0.396,3.957 -0.775,7.448 -1.05,8.721 -0.516,2.393 0.057,4.042 2.152,4.986 2.074,0.935 4.276,1.6 6.448,2.303 5.277,1.708 10.596,3.289 15.844,5.079 2.91,0.993 4.313,3.706 2.942,5.747 C 4.386,-1.843 1.596,0.337 0,0"
               inkscape:connector-curvature="0" />
          </g>
          <g
             transform="translate(322.8232,522.3354)"
             id="g3194"
             style="fill:#000000">
            <path
               id="path3196"
               style="fill:#000000;fill-opacity:1;fill-rule:nonzero;stroke:none"
               d="m 0,0 c 6.438,1.881 7.075,1.732 9.456,1.989 2.381,0.257 2.713,0.646 4.092,3.106 1.379,2.459 -3.117,5.126 -4.247,5.439 -2.463,0.682 -4.96,0.684 -7.593,0.241 -9.002,-1.513 -13.891,-5.527 -18.922,-13.319 -3.14,-4.861 -3.842,-10.819 -3.842,-15.08 0,-4.26 0.874,-11.436 4.122,-16.056 3.248,-4.621 4.673,-6.678 9.235,-9.201 1.597,-0.884 4.583,-2.241 7.648,-2.303 3.066,-0.062 2.675,-0.251 8.317,0.335 5.641,0.585 11.522,2.925 16.819,5.311 2.324,1.048 2.113,2.782 0.573,4.805 -1.012,1.328 -2.091,1.562 -3.366,1.394 -6.164,-0.814 -12.332,-1.626 -18.465,-2.64 -6.038,-0.997 -11.967,1.319 -13.808,8.301 -1.842,6.982 -1.545,11.514 -0.842,14.482 C -10.12,-10.228 -6.438,-1.881 0,0"
               inkscape:connector-curvature="0" />
          </g>
          <g
             transform="translate(316.8477,271.6846)"
             id="g3198"
             style="fill:#000000">
            <path
               id="path3200"
               style="fill:#000000;fill-opacity:1;fill-rule:nonzero;stroke:none"
               d="m 0,0 c -1.482,5.847 -4.125,15.791 -4.361,17.561 -0.237,1.769 -0.391,4.793 -1.469,6.835 -1.344,2.549 -4.209,3.79 -6.977,3.821 -2.767,0.031 -4.964,-0.709 -6.599,-3.551 -1.162,-2.02 -0.724,-7.84 -0.576,-8.813 0.564,-3.718 1.555,-8.359 2.599,-14.193 1.044,-5.834 2.717,-13.262 4.331,-18.905 1.111,-3.883 5.56,-8.99 11.132,-7.332 5.572,1.658 5.411,5.858 4.391,10.226 C 1.746,-11.251 0.781,-3.086 0,0"
               inkscape:connector-curvature="0" />
          </g>
          <g
             transform="translate(431.6064,469.791)"
             id="g3202"
             style="fill:#000000">
            <path
               id="path3204"
               style="fill:#000000;fill-opacity:1;fill-rule:nonzero;stroke:none"
               d="M 0,0 C 0.697,3.694 0.516,4.831 2.499,6.197 4.482,7.563 5.993,7.927 7.878,7.083 9.763,6.24 12.604,3.391 12.583,2.102 12.563,0.812 12.676,0.627 12.579,-0.276 12.481,-1.18 11.458,-3.259 10.478,-4.401 9.721,-5.283 8.389,-5.877 7.209,-6.152 2.95,-7.145 -0.696,-3.695 0,0 m -4.743,-8.809 c 2.512,-2.156 7.085,-4.406 9.072,-4.62 1.987,-0.215 2.393,0.034 5.229,-0.011 2.836,-0.045 9.1,6.203 10.956,10.348 1.855,4.144 1.054,7.467 -1.95,11.829 -3.003,4.362 -5.503,3.962 -13.628,5.495 -8.125,1.533 -15.711,-6.487 -13.53,-15.853 0.605,-2.595 1.912,-5.524 3.851,-7.188"
               inkscape:connector-curvature="0" />
          </g>
          <g
             transform="translate(407.0918,483.4463)"
             id="g3206"
             style="fill:#000000">
            <path
               id="path3208"
               style="fill:#000000;fill-opacity:1;fill-rule:nonzero;stroke:none"
               d="m 0,0 c -1.142,-2.941 -1.287,-5.798 -0.575,-9.033 1.211,-5.501 1.662,-11.175 2.326,-16.79 0.227,-1.918 1.374,-3.341 2.915,-3.625 2.102,-0.389 1.897,0.527 3.111,3.292 1.214,2.766 2.549,15.599 2.59,19.016 C 10.408,-3.723 9.521,0.772 8.249,1.931 6.977,3.09 7.886,2.721 6.105,3.499 4.325,4.277 1.302,3.354 0,0"
               inkscape:connector-curvature="0" />
          </g>
          <g
             transform="translate(419.4395,499.9253)"
             id="g3210"
             style="fill:#000000">
            <path
               id="path3212"
               style="fill:#000000;fill-opacity:1;fill-rule:nonzero;stroke:none"
               d="m 0,0 c -0.209,1.969 -3.732,4.304 -6.519,4.319 -2.127,0.012 -3.703,-1.522 -3.687,-3.59 0.027,-3.683 2.15,-5.727 5.849,-5.631 C -1.913,-4.839 0.255,-2.4 0,0"
               inkscape:connector-curvature="0" />
          </g>
          <g
             transform="translate(402.2031,467.0649)"
             id="g3214"
             style="fill:#000000">
            <path
               id="path3216"
               style="fill:#000000;fill-opacity:1;fill-rule:nonzero;stroke:none"
               d="M 0,0 C -0.047,2.375 -1.938,4.041 -4.444,4.071 -6.95,4.101 -8.316,3.233 -8.44,1.158 -8.58,-1.178 -6.774,-3.125 -3.847,-3.3 -1.648,-3.432 0.042,-2.165 0,0"
               inkscape:connector-curvature="0" />
          </g>
        </g>
      </g>
    </g>
  </g>
</svg>
