<?xml version="1.0" encoding="UTF-8" standalone="no"?>
<!-- Generator: Adobe Illustrator 19.1.0, SVG Export Plug-In . SVG Version: 6.00 Build 0)  -->
<svg id="svg5881" xmlns:rdf="http://www.w3.org/1999/02/22-rdf-syntax-ns#" xmlns="http://www.w3.org/2000/svg" xml:space="preserve" height="264" width="612" version="1.1" y="0px" x="0px" xmlns:cc="http://creativecommons.org/ns#" xmlns:dc="http://purl.org/dc/elements/1.1/" viewBox="0 0 612 264"><metadata id="metadata6235"><rdf:RDF><cc:Work rdf:about=""><dc:format>image/svg+xml</dc:format><dc:type rdf:resource="http://purl.org/dc/dcmitype/StillImage"/><dc:title/></cc:Work></rdf:RDF></metadata><style id="style5883" type="text/css">
	.st0{fill:#231F20;}
	.st1{fill:url(#SVGID_1_);}
	.st2{fill:url(#SVGID_2_);}
	.st3{fill:url(#SVGID_3_);}
	.st4{fill:#FFFFFF;}
	.st5{opacity:0.6;}
	.st6{fill:url(#SVGID_4_);}
	.st7{fill:url(#SVGID_5_);}
	.st8{fill:url(#SVGID_6_);}
	.st9{fill:url(#SVGID_7_);}
	.st10{fill:url(#SVGID_8_);}
	.st11{fill:url(#SVGID_9_);}
	.st12{fill:url(#SVGID_10_);}
	.st13{fill:url(#SVGID_11_);}
	.st14{fill:url(#SVGID_12_);}
	.st15{fill:url(#SVGID_13_);}
	.st16{fill:url(#SVGID_14_);}
	.st17{fill:url(#SVGID_15_);}
	.st18{fill:url(#SVGID_16_);}
	.st19{fill:url(#SVGID_17_);}
	.st20{fill:url(#SVGID_18_);}
	.st21{fill:url(#SVGID_19_);}
	.st22{fill:url(#SVGID_20_);}
	.st23{fill:url(#SVGID_21_);}
	.st24{fill:url(#SVGID_22_);}
	.st25{fill:url(#SVGID_23_);}
	.st26{fill:url(#SVGID_24_);}
	.st27{fill:url(#SVGID_25_);}
	.st28{fill:url(#SVGID_26_);}
	.st29{fill:none;stroke:#231F20;stroke-width:15;stroke-miterlimit:10;}
	.st30{fill:#FFFFFF;stroke:#231F20;stroke-width:15;stroke-miterlimit:10;}
</style><g id="bg" transform="matrix(1 0 0 .50095 0 -132.75)"><rect id="rect5886" class="st0" width="612" y="265" x="0" height="527" fill="#231f20"/></g><g id="Layer_1" transform="translate(0,-511.45)"><g id="g6026"><linearGradient id="SVGID_14_" y2="545.73" gradientUnits="userSpaceOnUse" x2="344.29" y1="629.72" x1="344.29"><stop id="stop6029" stop-color="#FA5C5C" offset="0"/><stop id="stop6031" stop-color="#FB9175" offset="1"/></linearGradient><path id="path6033" fill="url(#SVGID_14_)" class="st16" d="m366.8 586.7c0-9.8-6.3-18.1-15-21.2v-19.8h-15v19.8c-8.7 3.1-15 11.4-15 21.2s6.3 18.1 15 21.2v21.8h15v-21.8c8.7-3.1 15-11.4 15-21.2zm-22.5 7.5c-4.1 0-7.5-3.4-7.5-7.5s3.4-7.5 7.5-7.5 7.5 3.4 7.5 7.5-3.4 7.5-7.5 7.5z"/><linearGradient id="SVGID_15_" y2="545.73" gradientUnits="userSpaceOnUse" x2="299.74" y1="631.21" x1="299.74"><stop id="stop6036" stop-color="#7ED6D7" offset="0"/><stop id="stop6038" stop-color="#97FFFC" offset="1"/></linearGradient><path id="path6040" fill="url(#SVGID_15_)" class="st17" d="m307.2 587.5v-41.8h-15v41.8c-8.7 3.1-15 11.4-15 21.2 0 12.4 10.1 22.5 22.5 22.5s22.5-10.1 22.5-22.5c0-9.8-6.2-18.1-15-21.2zm-7.5 28.7c-4.1 0-7.5-3.4-7.5-7.5s3.4-7.5 7.5-7.5 7.5 3.4 7.5 7.5-3.3 7.5-7.5 7.5z"/><linearGradient id="SVGID_16_" y2="544.23" gradientUnits="userSpaceOnUse" x2="255.56" y1="629.72" x1="255.56"><stop id="stop6043" stop-color="#FA5C5C" offset="0"/><stop id="stop6045" stop-color="#FB9175" offset="1"/></linearGradient><path id="path6047" fill="url(#SVGID_16_)" class="st18" d="m278.1 566.7c0-12.4-10.1-22.5-22.5-22.5s-22.5 10.1-22.5 22.5c0 9.8 6.3 18.1 15 21.2v41.8h15v-41.8c8.7-3.1 15-11.4 15-21.2zm-22.5 7.5c-4.1 0-7.5-3.4-7.5-7.5s3.4-7.5 7.5-7.5 7.5 3.4 7.5 7.5-3.4 7.5-7.5 7.5z"/><path id="path6049" fill="#fff" class="st4" d="m275 674.5v51.8h-15.5v-51.8h15.5zm53.7 10.9c-0.8-2.4-1.9-4.5-3.4-6.3s-3.3-3.1-5.5-4.1-4.7-1.5-7.5-1.5c-1.7 0-3.2 0.2-4.6 0.5s-2.7 0.8-3.9 1.3-2.4 1.2-3.4 2c-0.7 0.5-1.4 1.1-2.1 1.7v-4.6h-15.5v51.8h0.2 15.3 0.2v-37c1.4-1.2 2.8-2.2 4.3-2.9s3.1-1.1 4.8-1.1c2.3 0 4 0.7 5.2 2.1s1.8 3.4 1.8 5.9v33h15.5v-33c-0.3-2.8-0.7-5.4-1.4-7.8zm55.3 32.7c-1.6 1.8-3.3 3.3-5.2 4.5s-3.8 2-5.7 2.7c-2 0.6-3.9 1.1-5.8 1.3s-3.8 0.4-5.6 0.4c-3.6 0-7-0.6-10.2-1.8s-6-2.9-8.4-5.3c-2.4-2.3-4.3-5.2-5.6-8.7-1.4-3.5-2.1-7.5-2.1-12.1 0-3.5 0.6-6.8 1.8-9.9s2.9-5.8 5.1-8.1 4.9-4.2 8-5.6c3.2-1.4 6.7-2 10.7-2 3.4 0 6.6 0.5 9.4 1.6 2.9 1.1 5.3 2.6 7.4 4.6 2 2 3.6 4.5 4.8 7.5 1.2 2.9 1.7 6.3 1.7 10l-0.1 5.7h-33.3c0.5 4.3 1.8 7.5 4 9.4 2.1 2 4.9 2.9 8.3 2.9 8.8 0 14.4-5.4 14.4-5.4l6.4 8.3zm-13.6-24c0-1.2-0.2-2.4-0.5-3.6s-0.8-2.2-1.5-3.1-1.7-1.7-2.8-2.2c-1.2-0.6-2.6-0.9-4.3-0.9-2.9 0-5.2 0.8-6.9 2.5s-2.8 4.1-3.3 7.3h19.3zm-152.9 24c-1.6 1.8-3.3 3.3-5.2 4.5s-3.8 2-5.7 2.7c-2 0.6-3.9 1.1-5.8 1.3s-3.8 0.4-5.6 0.4c-3.6 0-7-0.6-10.2-1.8s-6-2.9-8.4-5.3c-2.4-2.3-4.3-5.2-5.6-8.7-1.4-3.5-2.1-7.5-2.1-12.1 0-3.5 0.6-6.8 1.8-9.9s2.9-5.8 5.1-8.1 4.9-4.2 8-5.6c3.2-1.4 6.7-2 10.7-2 3.4 0 6.6 0.5 9.4 1.6 2.9 1.1 5.3 2.6 7.4 4.6 2 2 3.6 4.5 4.8 7.5 1.2 2.9 1.7 6.3 1.7 10l-0.1 5.7h-33.3c0.5 4.3 1.8 7.5 4 9.4 2.1 2 4.9 2.9 8.3 2.9 8.8 0 14.4-5.4 14.4-5.4l6.4 8.3zm-13.6-24c0-1.2-0.2-2.4-0.5-3.6s-0.8-2.2-1.5-3.1-1.7-1.7-2.8-2.2c-1.2-0.6-2.6-0.9-4.3-0.9-2.9 0-5.2 0.8-6.9 2.5s-2.8 4.1-3.3 7.3h19.3zm260.8-19.6-8.6 24.9c-0.4 1-0.8 2.1-1.2 3.1-0.4 1.1-0.7 2.1-1.1 3.2-0.5-2.1-1.2-4.2-2-6.3l-9.4-25h-16.9l20.7 47.2-10 21h15.2l29-68.2h-15.7zm-197.5-23.4c-5 0-9.1 4.1-9.1 9.1s4.1 9.1 9.1 9.1 9.1-4.1 9.1-9.1c0-5.1-4.1-9.1-9.1-9.1zm-13.4 12v-11.4c-12-0.6-27.6 2.4-27.6 22.8h-6.9v10.6h6.9v41.1h15v-41.1h12.6v-10.6h-12.6c0-4.6 1-6.3 1.4-6.9 0.7-1 3.8-4.5 11.2-4.5zm153.5 15.5v-4.2h-15.5v51.9h15.5v-23.3c0-7.4 2-10.4 4.3-11.9 1.7-1.2 6-2.9 12.1-0.7l2-16c-7-2.5-13.3-0.1-18.4 4.2zm-258.4 0v-4.2h-15.5v51.9h15.5v-23.3c0-7.4 2-10.4 4.3-11.9 1.7-1.2 6-2.9 12.1-0.7l2-16c-6.9-2.5-13.2-0.1-18.4 4.2z"/><g id="g6163" fill="#fff"><path id="path6165" class="st4" d="m138.9 638.5c0 0.4-0.1 0.8-0.2 1.1-0.2 0.4-0.4 0.7-0.7 0.9-0.3 0.3-0.6 0.5-1 0.6-0.4 0.2-0.8 0.2-1.2 0.2s-0.8-0.1-1.2-0.2-0.7-0.4-0.9-0.6c-0.3-0.3-0.5-0.6-0.6-0.9-0.2-0.4-0.2-0.7-0.2-1.1s0.1-0.8 0.2-1.2c0.2-0.4 0.4-0.7 0.6-0.9 0.3-0.3 0.6-0.5 0.9-0.6s0.7-0.2 1.2-0.2c0.4 0 0.8 0.1 1.2 0.2 0.4 0.2 0.7 0.4 1 0.6 0.3 0.3 0.5 0.6 0.7 0.9s0.2 0.8 0.2 1.2zm-0.5 4.6v16.8h-5v-16.8h5z"/><path id="path6167" class="st4" d="m147.9 660.1c-0.8 0-1.5-0.1-2.1-0.3s-1.1-0.6-1.5-1-0.7-0.9-0.9-1.5-0.3-1.3-0.3-2v-8.7h-1.4c-0.3 0-0.5-0.1-0.7-0.3s-0.3-0.4-0.3-0.7v-2l2.7-0.5 1-4.1c0.1-0.5 0.5-0.8 1.1-0.8h2.6v4.9h4.2v3.4h-4.3v8.3c0 0.4 0.1 0.7 0.3 1s0.5 0.4 0.8 0.4c0.2 0 0.3 0 0.5-0.1s0.2-0.1 0.3-0.1 0.2-0.1 0.3-0.1 0.2-0.1 0.3-0.1c0.2 0 0.3 0 0.4 0.1l0.3 0.3 1.5 2.4c-0.6 0.5-1.4 0.9-2.2 1.1-0.9 0.3-1.7 0.4-2.6 0.4z"/><path id="path6169" class="st4" d="m166.5 647.1l-0.4 0.4c-0.1 0.1-0.3 0.2-0.6 0.2-0.2 0-0.5-0.1-0.7-0.2s-0.4-0.3-0.7-0.4c-0.2-0.1-0.5-0.3-0.9-0.4-0.3-0.1-0.8-0.2-1.2-0.2-0.6 0-1.1 0.1-1.6 0.3-0.4 0.2-0.8 0.6-1.1 1s-0.5 0.9-0.6 1.5-0.2 1.3-0.2 2.1c0 1.6 0.3 2.8 0.9 3.7s1.5 1.3 2.6 1.3c0.6 0 1-0.1 1.4-0.2 0.3-0.1 0.6-0.3 0.9-0.5 0.2-0.2 0.5-0.3 0.7-0.5s0.5-0.2 0.8-0.2c0.4 0 0.7 0.1 0.9 0.4l1.5 1.8c-0.5 0.6-1.1 1.1-1.6 1.5-0.6 0.4-1.2 0.7-1.8 0.9s-1.2 0.4-1.8 0.4-1.2 0.1-1.8 0.1c-1 0-2-0.2-2.9-0.6s-1.8-1-2.5-1.7-1.3-1.6-1.7-2.7-0.6-2.3-0.6-3.7c0-1.2 0.2-2.3 0.5-3.4 0.4-1.1 0.9-2 1.6-2.7 0.7-0.8 1.6-1.4 2.6-1.8s2.3-0.7 3.6-0.7 2.5 0.2 3.5 0.6 1.9 1 2.7 1.8l-1.5 1.9z"/><path id="path6171" class="st4" d="m175 644.6c0.6-0.5 1.3-0.9 2-1.3 0.7-0.3 1.6-0.5 2.5-0.5s1.7 0.2 2.4 0.5 1.3 0.8 1.8 1.3c0.5 0.6 0.9 1.2 1.1 2s0.4 1.6 0.4 2.6v10.7h-5v-10.7c0-0.8-0.2-1.5-0.6-1.9s-0.9-0.7-1.7-0.7c-0.6 0-1.1 0.1-1.5 0.3-0.5 0.2-0.9 0.5-1.4 0.9v12h-5v-24.3h5v9.1z"/><path id="path6173" class="st4" d="m187.7 657.3c0-0.4 0.1-0.8 0.2-1.1s0.3-0.6 0.6-0.9l0.9-0.6c0.3-0.2 0.7-0.2 1.1-0.2s0.8 0.1 1.1 0.2 0.6 0.3 0.9 0.6c0.3 0.2 0.5 0.5 0.6 0.9 0.1 0.3 0.2 0.7 0.2 1.1s-0.1 0.8-0.2 1.1-0.3 0.6-0.6 0.9l-0.9 0.6c-0.3 0.1-0.7 0.2-1.1 0.2s-0.8-0.1-1.1-0.2-0.6-0.3-0.9-0.6c-0.3-0.2-0.5-0.5-0.6-0.9-0.1-0.3-0.2-0.7-0.2-1.1z"/><path id="path6175" class="st4" d="m201.8 638.5c0 0.4-0.1 0.8-0.2 1.1-0.2 0.4-0.4 0.7-0.7 0.9-0.3 0.3-0.6 0.5-1 0.6-0.4 0.2-0.8 0.2-1.2 0.2s-0.8-0.1-1.2-0.2-0.7-0.4-0.9-0.6c-0.3-0.3-0.5-0.6-0.6-0.9-0.2-0.4-0.2-0.7-0.2-1.1s0.1-0.8 0.2-1.2c0.2-0.4 0.4-0.7 0.6-0.9 0.3-0.3 0.6-0.5 0.9-0.6s0.7-0.2 1.2-0.2c0.4 0 0.8 0.1 1.2 0.2 0.4 0.2 0.7 0.4 1 0.6 0.3 0.3 0.5 0.6 0.7 0.9s0.2 0.8 0.2 1.2zm-0.5 4.6v16.8h-5v-16.8h5z"/><path id="path6177" class="st4" d="m212.5 642.8c1.3 0 2.4 0.2 3.5 0.6 1 0.4 1.9 1 2.7 1.7s1.3 1.7 1.8 2.7c0.4 1.1 0.6 2.3 0.6 3.6s-0.2 2.5-0.6 3.6-1 2-1.8 2.7-1.6 1.3-2.7 1.7c-1 0.4-2.2 0.6-3.5 0.6s-2.5-0.2-3.5-0.6c-1.1-0.4-2-1-2.7-1.7-0.8-0.8-1.3-1.7-1.8-2.7-0.4-1.1-0.6-2.3-0.6-3.6s0.2-2.5 0.6-3.6 1-2 1.8-2.7 1.7-1.3 2.7-1.7c1.1-0.4 2.3-0.6 3.5-0.6zm0 13.6c1.2 0 2-0.4 2.6-1.2 0.5-0.8 0.8-2.1 0.8-3.7 0-1.7-0.3-2.9-0.8-3.7s-1.4-1.2-2.6-1.2-2.1 0.4-2.6 1.2c-0.6 0.8-0.8 2-0.8 3.7s0.3 2.9 0.8 3.7c0.6 0.8 1.5 1.2 2.6 1.2z"/></g></g></g></svg>
