<?xml version="1.0" encoding="UTF-8" standalone="no"?>
<!-- Generator: Adobe Illustrator 19.1.0, SVG Export Plug-In . SVG Version: 6.00 Build 0)  -->

<svg
   xmlns:dc="http://purl.org/dc/elements/1.1/"
   xmlns:cc="http://creativecommons.org/ns#"
   xmlns:rdf="http://www.w3.org/1999/02/22-rdf-syntax-ns#"
   xmlns:svg="http://www.w3.org/2000/svg"
   xmlns="http://www.w3.org/2000/svg"
   xmlns:sodipodi="http://sodipodi.sourceforge.net/DTD/sodipodi-0.dtd"
   xmlns:inkscape="http://www.inkscape.org/namespaces/inkscape"
   version="1.1"
   x="0px"
   y="0px"
   viewBox="0 0 612 264"
   xml:space="preserve"
   id="svg4161"
   inkscape:version="0.91 r13725"
   sodipodi:docname="refinery_transparent.svg"
   width="612"
   height="264"><metadata
     id="metadata4515"><rdf:RDF><cc:Work
         rdf:about=""><dc:format>image/svg+xml</dc:format><dc:type
           rdf:resource="http://purl.org/dc/dcmitype/StillImage" /><dc:title></dc:title></cc:Work></rdf:RDF></metadata><defs
     id="defs4513" /><sodipodi:namedview
     pagecolor="#ffffff"
     bordercolor="#666666"
     borderopacity="1"
     objecttolerance="10"
     gridtolerance="10"
     guidetolerance="10"
     inkscape:pageopacity="0"
     inkscape:pageshadow="2"
     inkscape:window-width="1874"
     inkscape:window-height="1155"
     id="namedview4511"
     showgrid="false"
     inkscape:zoom="2"
     inkscape:cx="400.625"
     inkscape:cy="83.275424"
     inkscape:window-x="0"
     inkscape:window-y="1"
     inkscape:window-maximized="1"
     inkscape:current-layer="g4459" /><style
     type="text/css"
     id="style4163">
	.st0{fill:#231F20;}
	.st1{fill:url(#SVGID_1_);}
	.st2{fill:url(#SVGID_2_);}
	.st3{fill:url(#SVGID_3_);}
	.st4{fill:#FFFFFF;}
	.st5{opacity:0.6;}
	.st6{fill:url(#SVGID_4_);}
	.st7{fill:url(#SVGID_5_);}
	.st8{fill:url(#SVGID_6_);}
	.st9{fill:url(#SVGID_7_);}
	.st10{fill:url(#SVGID_8_);}
	.st11{fill:url(#SVGID_9_);}
	.st12{fill:url(#SVGID_10_);}
	.st13{fill:url(#SVGID_11_);}
	.st14{fill:url(#SVGID_12_);}
	.st15{fill:url(#SVGID_13_);}
	.st16{fill:url(#SVGID_14_);}
	.st17{fill:url(#SVGID_15_);}
	.st18{fill:url(#SVGID_16_);}
	.st19{fill:url(#SVGID_17_);}
	.st20{fill:url(#SVGID_18_);}
	.st21{fill:url(#SVGID_19_);}
	.st22{fill:url(#SVGID_20_);}
	.st23{fill:url(#SVGID_21_);}
	.st24{fill:url(#SVGID_22_);}
	.st25{fill:url(#SVGID_23_);}
	.st26{fill:url(#SVGID_24_);}
	.st27{fill:url(#SVGID_25_);}
	.st28{fill:url(#SVGID_26_);}
	.st29{fill:none;stroke:#231F20;stroke-width:15;stroke-miterlimit:10;}
	.st30{fill:#FFFFFF;stroke:#231F20;stroke-width:15;stroke-miterlimit:10;}
</style><g
     id="Layer_1"
     transform="translate(0,-528)"><g
       id="g4459"
       transform="translate(0,520.5)"><path
         style="color:#000000;font-style:normal;font-variant:normal;font-weight:normal;font-stretch:normal;font-size:medium;line-height:normal;font-family:sans-serif;text-indent:0;text-align:start;text-decoration:none;text-decoration-line:none;text-decoration-style:solid;text-decoration-color:#000000;letter-spacing:normal;word-spacing:normal;text-transform:none;direction:ltr;block-progression:tb;writing-mode:lr-tb;baseline-shift:baseline;text-anchor:start;white-space:normal;clip-rule:nonzero;display:inline;overflow:visible;visibility:visible;opacity:1;isolation:auto;mix-blend-mode:normal;color-interpolation:sRGB;color-interpolation-filters:linearRGB;solid-color:#000000;solid-opacity:1;fill:#231f20;fill-opacity:1;fill-rule:nonzero;stroke:none;stroke-width:15;stroke-linecap:butt;stroke-linejoin:miter;stroke-miterlimit:10;stroke-dasharray:none;stroke-dashoffset:0;stroke-opacity:1;color-rendering:auto;image-rendering:auto;shape-rendering:auto;text-rendering:auto;enable-background:accumulate"
         d="M 335.90039 34.699219 L 335.90039 55.845703 A 22.5 22.5 0 0 0 320.40039 77.199219 A 22.5 22.5 0 0 0 335.90039 98.568359 L 335.90039 118.69922 L 350.90039 118.69922 L 350.90039 98.220703 A 22.5 22.5 0 0 0 365.40039 77.199219 A 22.5 22.5 0 0 0 350.90039 56.199219 L 350.90039 34.699219 L 335.90039 34.699219 z M 342.90039 69.699219 A 7.5 7.5 0 0 1 350.40039 77.199219 A 7.5 7.5 0 0 1 342.90039 84.699219 A 7.5 7.5 0 0 1 335.40039 77.199219 A 7.5 7.5 0 0 1 342.90039 69.699219 z "
         transform="translate(0,7.5)"
         id="line4461" /><path
         style="color:#000000;font-style:normal;font-variant:normal;font-weight:normal;font-stretch:normal;font-size:medium;line-height:normal;font-family:sans-serif;text-indent:0;text-align:start;text-decoration:none;text-decoration-line:none;text-decoration-style:solid;text-decoration-color:#000000;letter-spacing:normal;word-spacing:normal;text-transform:none;direction:ltr;block-progression:tb;writing-mode:lr-tb;baseline-shift:baseline;text-anchor:start;white-space:normal;clip-rule:nonzero;display:inline;overflow:visible;visibility:visible;opacity:1;isolation:auto;mix-blend-mode:normal;color-interpolation:sRGB;color-interpolation-filters:linearRGB;solid-color:#000000;solid-opacity:1;fill:#231f20;fill-opacity:1;fill-rule:nonzero;stroke:none;stroke-width:15;stroke-linecap:butt;stroke-linejoin:miter;stroke-miterlimit:10;stroke-dasharray:none;stroke-dashoffset:0;stroke-opacity:1;color-rendering:auto;image-rendering:auto;shape-rendering:auto;text-rendering:auto;enable-background:accumulate"
         d="M 291.30078 34.699219 L 291.30078 76.511719 A 22.5 22.5 0 0 0 276.30078 97.699219 A 22.5 22.5 0 0 0 298.80078 120.19922 A 22.5 22.5 0 0 0 321.30078 97.699219 A 22.5 22.5 0 0 0 306.30078 76.515625 L 306.30078 34.699219 L 291.30078 34.699219 z M 298.80078 90.199219 A 7.5 7.5 0 0 1 306.30078 97.699219 A 7.5 7.5 0 0 1 298.80078 105.19922 A 7.5 7.5 0 0 1 291.30078 97.699219 A 7.5 7.5 0 0 1 298.80078 90.199219 z "
         transform="translate(0,7.5)"
         id="line4465" /><path
         style="color:#000000;font-style:normal;font-variant:normal;font-weight:normal;font-stretch:normal;font-size:medium;line-height:normal;font-family:sans-serif;text-indent:0;text-align:start;text-decoration:none;text-decoration-line:none;text-decoration-style:solid;text-decoration-color:#000000;letter-spacing:normal;word-spacing:normal;text-transform:none;direction:ltr;block-progression:tb;writing-mode:lr-tb;baseline-shift:baseline;text-anchor:start;white-space:normal;clip-rule:nonzero;display:inline;overflow:visible;visibility:visible;opacity:1;isolation:auto;mix-blend-mode:normal;color-interpolation:sRGB;color-interpolation-filters:linearRGB;solid-color:#000000;solid-opacity:1;fill:#231f20;fill-opacity:1;fill-rule:nonzero;stroke:none;stroke-width:15;stroke-linecap:butt;stroke-linejoin:miter;stroke-miterlimit:10;stroke-dasharray:none;stroke-dashoffset:0;stroke-opacity:1;color-rendering:auto;image-rendering:auto;shape-rendering:auto;text-rendering:auto;enable-background:accumulate"
         d="M 254.59961 33.199219 A 22.5 22.5 0 0 0 232.09961 55.699219 A 22.5 22.5 0 0 0 247.09961 76.884766 L 247.09961 118.69922 L 262.09961 118.69922 L 262.09961 76.888672 A 22.5 22.5 0 0 0 277.09961 55.699219 A 22.5 22.5 0 0 0 254.59961 33.199219 z M 254.59961 48.199219 A 7.5 7.5 0 0 1 262.09961 55.699219 A 7.5 7.5 0 0 1 254.59961 63.199219 A 7.5 7.5 0 0 1 247.09961 55.699219 A 7.5 7.5 0 0 1 254.59961 48.199219 z "
         transform="translate(0,7.5)"
         id="line4469" /><g
         id="g4473"><rect
           x="258.5"
           y="170.89999"
           class="st0"
           width="15.5"
           height="51.799999"
           id="rect4475"
           style="fill:#231f20" /><path
           class="st0"
           d="m 327.7,181.9 c -0.8,-2.4 -1.9,-4.5 -3.4,-6.3 -1.5,-1.8 -3.3,-3.1 -5.5,-4.1 -2.2,-1 -4.7,-1.5 -7.5,-1.5 -1.7,0 -3.2,0.2 -4.6,0.5 -1.4,0.3 -2.7,0.8 -3.9,1.3 -1.2,0.5 -2.4,1.2 -3.4,2 -0.7,0.5 -1.4,1.1 -2.1,1.7 l 0,-4.6 -15.5,0 0,51.8 0.2,0 15.3,0 0.2,0 0,-37 c 1.4,-1.2 2.8,-2.2 4.3,-2.9 1.5,-0.7 3.1,-1.1 4.8,-1.1 2.3,0 4,0.7 5.2,2.1 1.2,1.4 1.8,3.4 1.8,5.9 l 0,33 15.5,0 0,-33 c -0.2,-2.8 -0.6,-5.4 -1.4,-7.8 z"
           id="path4477"
           inkscape:connector-curvature="0"
           style="fill:#231f20" /><path
           class="st0"
           d="m 383.1,214.6 c -1.6,1.8 -3.3,3.3 -5.2,4.5 -1.9,1.2 -3.8,2 -5.7,2.7 -2,0.6 -3.9,1.1 -5.8,1.3 -1.9,0.2 -3.8,0.4 -5.6,0.4 -3.6,0 -7,-0.6 -10.2,-1.8 -3.2,-1.2 -6,-2.9 -8.4,-5.3 -2.4,-2.3 -4.3,-5.2 -5.6,-8.7 -1.4,-3.5 -2.1,-7.5 -2.1,-12.1 0,-3.5 0.6,-6.8 1.8,-9.9 1.2,-3.1 2.9,-5.8 5.1,-8.1 2.2,-2.3 4.9,-4.2 8,-5.6 3.2,-1.4 6.7,-2 10.7,-2 3.4,0 6.6,0.5 9.4,1.6 2.9,1.1 5.3,2.6 7.4,4.6 2,2 3.6,4.5 4.8,7.5 1.2,2.9 1.7,6.3 1.7,10 l -0.1,5.7 -33.3,0 c 0.5,4.3 1.8,7.5 4,9.4 2.1,2 4.9,2.9 8.3,2.9 8.8,0 14.4,-5.4 14.4,-5.4 l 6.4,8.3 z m -13.6,-24.1 c 0,-1.2 -0.2,-2.4 -0.5,-3.6 -0.3,-1.2 -0.8,-2.2 -1.5,-3.1 -0.7,-0.9 -1.7,-1.7 -2.8,-2.2 -1.2,-0.6 -2.6,-0.9 -4.3,-0.9 -2.9,0 -5.2,0.8 -6.9,2.5 -1.7,1.7 -2.8,4.1 -3.3,7.3 l 19.3,0 z"
           id="path4479"
           inkscape:connector-curvature="0"
           style="fill:#231f20" /><path
           class="st0"
           d="m 216.5,214.6 c -1.6,1.8 -3.3,3.3 -5.2,4.5 -1.9,1.2 -3.8,2 -5.7,2.7 -2,0.6 -3.9,1.1 -5.8,1.3 -1.9,0.2 -3.8,0.4 -5.6,0.4 -3.6,0 -7,-0.6 -10.2,-1.8 -3.2,-1.2 -6,-2.9 -8.4,-5.3 -2.4,-2.3 -4.3,-5.2 -5.6,-8.7 -1.4,-3.5 -2.1,-7.5 -2.1,-12.1 0,-3.5 0.6,-6.8 1.8,-9.9 1.2,-3.1 2.9,-5.8 5.1,-8.1 2.2,-2.3 4.9,-4.2 8,-5.6 3.2,-1.4 6.7,-2 10.7,-2 3.4,0 6.6,0.5 9.4,1.6 2.9,1.1 5.3,2.6 7.4,4.6 2,2 3.6,4.5 4.8,7.5 1.2,2.9 1.7,6.3 1.7,10 l -0.1,5.7 -33.3,0 c 0.5,4.3 1.8,7.5 4,9.4 2.1,2 4.9,2.9 8.3,2.9 8.8,0 14.4,-5.4 14.4,-5.4 l 6.4,8.3 z m -13.6,-24.1 c 0,-1.2 -0.2,-2.4 -0.5,-3.6 -0.3,-1.2 -0.8,-2.2 -1.5,-3.1 -0.7,-0.9 -1.7,-1.7 -2.8,-2.2 -1.2,-0.6 -2.6,-0.9 -4.3,-0.9 -2.9,0 -5.2,0.8 -6.9,2.5 -1.7,1.7 -2.8,4.1 -3.3,7.3 l 19.3,0 z"
           id="path4481"
           inkscape:connector-curvature="0"
           style="fill:#231f20" /><path
           class="st0"
           d="m 463.8,170.9 -8.6,24.9 c -0.4,1 -0.8,2.1 -1.2,3.1 -0.4,1.1 -0.7,2.1 -1.1,3.2 -0.5,-2.1 -1.2,-4.2 -2,-6.3 l -9.4,-25 -16.9,0 20.7,47.2 -10,21 15.2,0 29,-68.2 -15.7,0 z"
           id="path4483"
           inkscape:connector-curvature="0"
           style="fill:#231f20" /><circle
           class="st0"
           cx="266.29999"
           cy="156.60001"
           r="9.1000004"
           id="circle4485"
           style="fill:#231f20" /><rect
           x="218.5"
           y="170.89999"
           class="st0"
           width="34.5"
           height="10.6"
           id="rect4487"
           style="fill:#231f20" /><line
           class="st29"
           x1="232.8"
           y1="222.7"
           x2="232.8"
           y2="170.89999"
           id="line4489"
           style="fill:none;stroke:#231f20;stroke-width:15;stroke-miterlimit:10" /><g
           id="g4491"><path
             class="st0"
             d="m 240.3,170.9 -15,0 c 0,-20.4 15.6,-23.4 27.6,-22.8 l 0,11.4 c -7.4,0 -10.6,3.5 -11.2,4.5 -0.3,0.7 -1.4,2.4 -1.4,6.9 z"
             id="path4493"
             inkscape:connector-curvature="0"
             style="fill:#231f20" /></g><g
           id="g4495"><rect
             x="390.79999"
             y="170.8"
             class="st0"
             width="15.5"
             height="51.900002"
             id="rect4497"
             style="fill:#231f20" /><g
             id="g4499"><path
               class="st0"
               d="m 422.7,186.8 2,-16 c -18.3,-6.7 -32.6,21.6 -32.6,28.6 l 14.2,0 c 0,-7.4 2,-10.4 4.3,-11.9 1.7,-1.2 6,-2.9 12.1,-0.7 z"
               id="path4501"
               inkscape:connector-curvature="0"
               style="fill:#231f20" /></g></g><g
           id="g4503"><rect
             x="132.5"
             y="170.8"
             class="st0"
             width="15.5"
             height="51.900002"
             id="rect4505"
             style="fill:#231f20" /><g
             id="g4507"><path
               class="st0"
               d="m 164.3,186.8 2,-16 c -18.3,-6.7 -32.6,21.6 -32.6,28.6 l 14.3,0 c 0,-7.4 2,-10.4 4.3,-11.9 1.6,-1.2 5.9,-2.9 12,-0.7 z"
               id="path4509"
               inkscape:connector-curvature="0"
               style="fill:#231f20" /></g></g></g></g></g></svg>